<mxfile host="app.diagrams.net" agent="Mozilla/5.0 (Windows NT 10.0; Win64; x64) AppleWebKit/537.36 (KHTML, like Gecko) Chrome/137.0.0.0 Safari/537.36 Edg/137.0.0.0" version="27.1.6">
  <diagram name="Page-1" id="E_Ps1VZoBHXRe9SAwYd0">
    <mxGraphModel dx="2009" dy="627" grid="1" gridSize="10" guides="1" tooltips="1" connect="1" arrows="1" fold="1" page="1" pageScale="1" pageWidth="827" pageHeight="1169" math="0" shadow="0">
      <root>
        <mxCell id="0" />
        <mxCell id="1" parent="0" />
        <mxCell id="c-d4OfnDCnfcvoNjXBJn-43" value="" style="rounded=0;whiteSpace=wrap;html=1;fillColor=#f8cecc;strokeColor=#b85450;" vertex="1" parent="1">
          <mxGeometry x="-670" y="410" width="120" height="110" as="geometry" />
        </mxCell>
        <mxCell id="c-d4OfnDCnfcvoNjXBJn-14" value="" style="group" vertex="1" connectable="0" parent="1">
          <mxGeometry x="-660" y="570" width="20" height="30" as="geometry" />
        </mxCell>
        <mxCell id="c-d4OfnDCnfcvoNjXBJn-13" value="" style="verticalLabelPosition=bottom;sketch=0;aspect=fixed;html=1;verticalAlign=top;strokeColor=none;align=center;outlineConnect=0;shape=mxgraph.citrix.license_server;" vertex="1" parent="c-d4OfnDCnfcvoNjXBJn-14">
          <mxGeometry width="18.106060606060602" height="23.67424242424242" as="geometry" />
        </mxCell>
        <mxCell id="c-d4OfnDCnfcvoNjXBJn-12" value="" style="verticalLabelPosition=bottom;sketch=0;aspect=fixed;html=1;verticalAlign=top;strokeColor=#6c8ebf;align=center;outlineConnect=0;shape=mxgraph.citrix.process;fillColor=#dae8fc;" vertex="1" parent="c-d4OfnDCnfcvoNjXBJn-14">
          <mxGeometry x="12.059659090909088" y="18.88888888888889" width="7.940340909090907" height="9.469696969696969" as="geometry" />
        </mxCell>
        <mxCell id="c-d4OfnDCnfcvoNjXBJn-24" value="" style="group" vertex="1" connectable="0" parent="1">
          <mxGeometry x="90" y="450" width="30" height="50" as="geometry" />
        </mxCell>
        <mxCell id="c-d4OfnDCnfcvoNjXBJn-25" value="Serveur Batch R" style="verticalLabelPosition=bottom;sketch=0;aspect=fixed;html=1;verticalAlign=top;strokeColor=none;align=center;outlineConnect=0;shape=mxgraph.citrix.license_server;" vertex="1" parent="c-d4OfnDCnfcvoNjXBJn-24">
          <mxGeometry width="27.159090909090903" height="35.511363636363626" as="geometry" />
        </mxCell>
        <mxCell id="c-d4OfnDCnfcvoNjXBJn-26" value="" style="verticalLabelPosition=bottom;sketch=0;aspect=fixed;html=1;verticalAlign=top;strokeColor=#6c8ebf;align=center;outlineConnect=0;shape=mxgraph.citrix.process;fillColor=#dae8fc;" vertex="1" parent="c-d4OfnDCnfcvoNjXBJn-24">
          <mxGeometry x="18.089488636363633" y="31.481481481481485" width="11.910511363636362" height="14.204545454545453" as="geometry" />
        </mxCell>
        <mxCell id="c-d4OfnDCnfcvoNjXBJn-39" value="" style="group" vertex="1" connectable="0" parent="1">
          <mxGeometry x="510" y="425" width="20" height="30" as="geometry" />
        </mxCell>
        <mxCell id="c-d4OfnDCnfcvoNjXBJn-40" value="&lt;font style=&quot;font-size: 7px;&quot;&gt;P10 chaine annuelle&lt;/font&gt;" style="verticalLabelPosition=bottom;sketch=0;aspect=fixed;html=1;verticalAlign=top;strokeColor=none;align=center;outlineConnect=0;shape=mxgraph.citrix.license_server;" vertex="1" parent="c-d4OfnDCnfcvoNjXBJn-39">
          <mxGeometry width="18.106060606060602" height="23.67424242424242" as="geometry" />
        </mxCell>
        <mxCell id="c-d4OfnDCnfcvoNjXBJn-41" value="" style="verticalLabelPosition=bottom;sketch=0;aspect=fixed;html=1;verticalAlign=top;strokeColor=#6c8ebf;align=center;outlineConnect=0;shape=mxgraph.citrix.process;fillColor=#dae8fc;" vertex="1" parent="c-d4OfnDCnfcvoNjXBJn-39">
          <mxGeometry x="12.059659090909088" y="18.88888888888889" width="7.940340909090907" height="9.469696969696969" as="geometry" />
        </mxCell>
        <mxCell id="c-d4OfnDCnfcvoNjXBJn-44" value="" style="endArrow=none;dashed=1;html=1;dashPattern=1 3;strokeWidth=2;rounded=0;fillColor=#a20025;strokeColor=#6F0000;" edge="1" parent="1" source="c-d4OfnDCnfcvoNjXBJn-63" target="c-d4OfnDCnfcvoNjXBJn-60">
          <mxGeometry width="50" height="50" relative="1" as="geometry">
            <mxPoint x="-130" y="530" as="sourcePoint" />
            <mxPoint x="-80" y="550" as="targetPoint" />
          </mxGeometry>
        </mxCell>
        <mxCell id="c-d4OfnDCnfcvoNjXBJn-49" value="" style="group" vertex="1" connectable="0" parent="1">
          <mxGeometry x="90" y="540" width="30" height="50" as="geometry" />
        </mxCell>
        <mxCell id="c-d4OfnDCnfcvoNjXBJn-50" value="Serveur Batch SAS" style="verticalLabelPosition=bottom;sketch=0;aspect=fixed;html=1;verticalAlign=top;strokeColor=none;align=center;outlineConnect=0;shape=mxgraph.citrix.license_server;" vertex="1" parent="c-d4OfnDCnfcvoNjXBJn-49">
          <mxGeometry width="27.159090909090903" height="35.511363636363626" as="geometry" />
        </mxCell>
        <mxCell id="c-d4OfnDCnfcvoNjXBJn-51" value="" style="verticalLabelPosition=bottom;sketch=0;aspect=fixed;html=1;verticalAlign=top;strokeColor=#6c8ebf;align=center;outlineConnect=0;shape=mxgraph.citrix.process;fillColor=#dae8fc;" vertex="1" parent="c-d4OfnDCnfcvoNjXBJn-49">
          <mxGeometry x="18.089488636363633" y="31.481481481481485" width="11.910511363636362" height="14.204545454545453" as="geometry" />
        </mxCell>
        <mxCell id="c-d4OfnDCnfcvoNjXBJn-52" value="" style="group" vertex="1" connectable="0" parent="1">
          <mxGeometry x="90" y="620" width="30" height="50" as="geometry" />
        </mxCell>
        <mxCell id="c-d4OfnDCnfcvoNjXBJn-53" value="Serveur Batch Java/PSQL" style="verticalLabelPosition=bottom;sketch=0;aspect=fixed;html=1;verticalAlign=top;strokeColor=none;align=center;outlineConnect=0;shape=mxgraph.citrix.license_server;" vertex="1" parent="c-d4OfnDCnfcvoNjXBJn-52">
          <mxGeometry width="27.159090909090903" height="35.511363636363626" as="geometry" />
        </mxCell>
        <mxCell id="c-d4OfnDCnfcvoNjXBJn-54" value="" style="verticalLabelPosition=bottom;sketch=0;aspect=fixed;html=1;verticalAlign=top;strokeColor=#6c8ebf;align=center;outlineConnect=0;shape=mxgraph.citrix.process;fillColor=#dae8fc;" vertex="1" parent="c-d4OfnDCnfcvoNjXBJn-52">
          <mxGeometry x="18.089488636363633" y="31.481481481481485" width="11.910511363636362" height="14.204545454545453" as="geometry" />
        </mxCell>
        <mxCell id="c-d4OfnDCnfcvoNjXBJn-59" value="" style="group" vertex="1" connectable="0" parent="1">
          <mxGeometry x="-40" y="540" width="30" height="50" as="geometry" />
        </mxCell>
        <mxCell id="c-d4OfnDCnfcvoNjXBJn-60" value="Serveur Rundeck" style="verticalLabelPosition=bottom;sketch=0;aspect=fixed;html=1;verticalAlign=top;strokeColor=none;align=center;outlineConnect=0;shape=mxgraph.citrix.license_server;" vertex="1" parent="c-d4OfnDCnfcvoNjXBJn-59">
          <mxGeometry width="27.159090909090903" height="35.511363636363626" as="geometry" />
        </mxCell>
        <mxCell id="c-d4OfnDCnfcvoNjXBJn-61" value="" style="verticalLabelPosition=bottom;sketch=0;aspect=fixed;html=1;verticalAlign=top;strokeColor=#6c8ebf;align=center;outlineConnect=0;shape=mxgraph.citrix.process;fillColor=#dae8fc;" vertex="1" parent="c-d4OfnDCnfcvoNjXBJn-59">
          <mxGeometry x="18.089488636363633" y="31.481481481481485" width="11.910511363636362" height="14.204545454545453" as="geometry" />
        </mxCell>
        <mxCell id="c-d4OfnDCnfcvoNjXBJn-62" value="" style="endArrow=none;dashed=1;html=1;dashPattern=1 3;strokeWidth=2;rounded=0;fillColor=#a20025;strokeColor=#6F0000;" edge="1" parent="1" source="c-d4OfnDCnfcvoNjXBJn-60" target="c-d4OfnDCnfcvoNjXBJn-50">
          <mxGeometry width="50" height="50" relative="1" as="geometry">
            <mxPoint x="-60" y="483.92" as="sourcePoint" />
            <mxPoint y="494.9969230769231" as="targetPoint" />
          </mxGeometry>
        </mxCell>
        <mxCell id="c-d4OfnDCnfcvoNjXBJn-63" value="&lt;font style=&quot;font-size: 8px;&quot;&gt;DECOR/DMTR/SNDIP&lt;/font&gt;" style="image;html=1;image=img/lib/clip_art/people/Suit_Man_128x128.png" vertex="1" parent="1">
          <mxGeometry x="-190" y="540" width="28" height="29" as="geometry" />
        </mxCell>
        <mxCell id="c-d4OfnDCnfcvoNjXBJn-64" value="" style="image;html=1;image=img/lib/clip_art/people/Suit_Man_128x128.png" vertex="1" parent="1">
          <mxGeometry x="-670" y="666" width="28" height="29" as="geometry" />
        </mxCell>
        <mxCell id="c-d4OfnDCnfcvoNjXBJn-70" value="" style="group" vertex="1" connectable="0" parent="1">
          <mxGeometry x="-670" y="300" width="42.5" height="55" as="geometry" />
        </mxCell>
        <mxCell id="c-d4OfnDCnfcvoNjXBJn-71" value="Base" style="verticalLabelPosition=bottom;sketch=0;aspect=fixed;html=1;verticalAlign=top;strokeColor=#b85450;align=center;outlineConnect=0;shape=mxgraph.citrix.database;fillColor=#f8cecc;" vertex="1" parent="c-d4OfnDCnfcvoNjXBJn-70">
          <mxGeometry y="5" width="42.5" height="50" as="geometry" />
        </mxCell>
        <mxCell id="c-d4OfnDCnfcvoNjXBJn-72" value="" style="shape=image;verticalLabelPosition=bottom;labelBackgroundColor=default;verticalAlign=top;aspect=fixed;imageAspect=0;editableCssRules=.*;image=data:image/svg+xml,PHN2ZyB4bWxucz0iaHR0cDovL3d3dy53My5vcmcvMjAwMC9zdmciIHhtbDpzcGFjZT0icHJlc2VydmUiIHZpZXdCb3g9IjAgMTguMDc2MzI4Mjc3NTg3ODkgNDEzLjY5ODI0MjE4NzUgNDA5LjQ0MTQ5NzgwMjczNDQiIGhlaWdodD0iNDA5LjQ0MTQ5NzgwMjczNDQiIHdpZHRoPSI0MTMuNjk4MjQyMTg3NSI+JiN4YTs8ZyBzdHlsZT0iZmlsbC1ydWxlOm5vbnplcm87Y2xpcC1ydWxlOm5vbnplcm87c3Ryb2tlOiMwMDAwMDA7c3Ryb2tlLW1pdGVybGltaXQ6NDsiIGlkPSJvcmdpbmFsIj4mI3hhOwk8L2c+JiN4YTs8ZyBzdHlsZT0iZmlsbC1ydWxlOm5vbnplcm87Y2xpcC1ydWxlOm5vbnplcm87ZmlsbDpub25lO3N0cm9rZTojRkZGRkZGO3N0cm9rZS13aWR0aDoxMi40NjUxO3N0cm9rZS1saW5lY2FwOnJvdW5kO3N0cm9rZS1saW5lam9pbjpyb3VuZDtzdHJva2UtbWl0ZXJsaW1pdDo0OyIgaWQ9IkxheWVyX3gwMDIwXzMiPiYjeGE7PHBhdGggZD0iTTMyMy4yMDUsMzI0LjIyN2MyLjgzMy0yMy42MDEsMS45ODQtMjcuMDYyLDE5LjU2My0yMy4yMzlsNC40NjMsMC4zOTJjMTMuNTE3LDAuNjE1LDMxLjE5OS0yLjE3NCw0MS41ODctN2MyMi4zNjItMTAuMzc2LDM1LjYyMi0yNy43LDEzLjU3Mi0yMy4xNDhjLTUwLjI5NywxMC4zNzYtNTMuNzU1LTYuNjU1LTUzLjc1NS02LjY1NWM1My4xMTEtNzguODAzLDc1LjMxMy0xNzguODM2LDU2LjE0OS0yMDMuMzIyICAgIEMzNTIuNTE0LTUuNTM0LDI2Mi4wMzYsMjYuMDQ5LDI2MC41MjIsMjYuODY5bC0wLjQ4MiwwLjA4OWMtOS45MzgtMi4wNjItMjEuMDYtMy4yOTQtMzMuNTU0LTMuNDk2Yy0yMi43NjEtMC4zNzQtNDAuMDMyLDUuOTY3LTUzLjEzMywxNS45MDRjMCwwLTE2MS40MDgtNjYuNDk4LTE1My44OTksODMuNjI4YzEuNTk3LDMxLjkzNiw0NS43NzcsMjQxLjY1NSw5OC40NywxNzguMzEgICAgYzE5LjI1OS0yMy4xNjMsMzcuODcxLTQyLjc0OCwzNy44NzEtNDIuNzQ4YzkuMjQyLDYuMTQsMjAuMzA3LDkuMjcyLDMxLjkxMiw4LjE0N2wwLjg5Ny0wLjc2NWMtMC4yODEsMi44NzYtMC4xNTcsNS42ODksMC4zNTksOS4wMTljLTEzLjU3MiwxNS4xNjctOS41ODQsMTcuODMtMzYuNzIzLDIzLjQxNmMtMjcuNDU3LDUuNjU5LTExLjMyNiwxNS43MzQtMC43OTcsMTguMzY3YzEyLjc2OCwzLjE5Myw0Mi4zMDUsNy43MTYsNjIuMjY4LTIwLjIyNCAgICBsLTAuNzk1LDMuMTg4YzUuMzI1LDQuMjYsNC45NjUsMzAuNjE5LDUuNzIsNDkuNDUyYzAuNzU2LDE4LjgzNCwyLjAxNywzNi40MDksNS44NTYsNDYuNzcxYzMuODM5LDEwLjM2LDguMzY5LDM3LjA1LDQ0LjAzNiwyOS40MDZjMjkuODA5LTYuMzg4LDUyLjYtMTUuNTgyLDU0LjY3Ny0xMDEuMTA3IiBzdHlsZT0iZmlsbDojMDAwMDAwO3N0cm9rZTojMDAwMDAwO3N0cm9rZS13aWR0aDozNy4zOTUzO3N0cm9rZS1saW5lY2FwOmJ1dHQ7c3Ryb2tlLWxpbmVqb2luOm1pdGVyOyIvPiYjeGE7PHBhdGggZD0iTTQwMi4zOTUsMjcxLjIzYy01MC4zMDIsMTAuMzc2LTUzLjc2LTYuNjU1LTUzLjc2LTYuNjU1YzUzLjExMS03OC44MDgsNzUuMzEzLTE3OC44NDMsNTYuMTUzLTIwMy4zMjZjLTUyLjI3LTY2Ljc4NS0xNDIuNzUyLTM1LjItMTQ0LjI2Mi0zNC4zOGwtMC40ODYsMC4wODdjLTkuOTM4LTIuMDYzLTIxLjA2LTMuMjkyLTMzLjU2LTMuNDk2Yy0yMi43NjEtMC4zNzMtNDAuMDI2LDUuOTY3LTUzLjEyNywxNS45MDIgICAgYzAsMC0xNjEuNDExLTY2LjQ5NS0xNTMuOTA0LDgzLjYzYzEuNTk3LDMxLjkzOCw0NS43NzYsMjQxLjY1Nyw5OC40NzEsMTc4LjMxMmMxOS4yNi0yMy4xNjMsMzcuODY5LTQyLjc0OCwzNy44NjktNDIuNzQ4YzkuMjQzLDYuMTQsMjAuMzA4LDkuMjcyLDMxLjkwOCw4LjE0N2wwLjkwMS0wLjc2NWMtMC4yOCwyLjg3Ni0wLjE1Miw1LjY4OSwwLjM2MSw5LjAxOWMtMTMuNTc1LDE1LjE2Ny05LjU4NiwxNy44My0zNi43MjMsMjMuNDE2ICAgIGMtMjcuNDU5LDUuNjU5LTExLjMyOCwxNS43MzQtMC43OTYsMTguMzY3YzEyLjc2OCwzLjE5Myw0Mi4zMDcsNy43MTYsNjIuMjY2LTIwLjIyNGwtMC43OTYsMy4xODhjNS4zMTksNC4yNiw5LjA1NCwyNy43MTEsOC40MjgsNDguOTY5Yy0wLjYyNiwyMS4yNTktMS4wNDQsMzUuODU0LDMuMTQ3LDQ3LjI1NGM0LjE5MSwxMS40LDguMzY4LDM3LjA1LDQ0LjA0MiwyOS40MDZjMjkuODA5LTYuMzg4LDQ1LjI1Ni0yMi45NDIsNDcuNDA1LTUwLjU1NSAgICBjMS41MjUtMTkuNjMxLDQuOTc2LTE2LjcyOSw1LjE5NC0zNC4yOGwyLjc2OC04LjMwOWMzLjE5Mi0yNi42MTEsMC41MDctMzUuMTk2LDE4Ljg3Mi0zMS4yMDNsNC40NjMsMC4zOTJjMTMuNTE3LDAuNjE1LDMxLjIwOC0yLjE3NCw0MS41OTEtN2MyMi4zNTgtMTAuMzc2LDM1LjYxOC0yNy43LDEzLjU3My0yMy4xNDh6IiBzdHlsZT0iZmlsbDojMzM2NzkxO3N0cm9rZTpub25lOyIvPiYjeGE7PHBhdGggZD0iTTIxNS44NjYsMjg2LjQ4NGMtMS4zODUsNDkuNTE2LDAuMzQ4LDk5LjM3Nyw1LjE5MywxMTEuNDk1YzQuODQ4LDEyLjExOCwxNS4yMjMsMzUuNjg4LDUwLjksMjguMDQ1YzI5LjgwNi02LjM5LDQwLjY1MS0xOC43NTYsNDUuMzU3LTQ2LjA1MWMzLjQ2Ni0yMC4wODIsMTAuMTQ4LTc1Ljg1NCwxMS4wMDUtODcuMjgxIi8+JiN4YTs8cGF0aCBkPSJNMTczLjEwNCwzOC4yNTZjMCwwLTE2MS41MjEtNjYuMDE2LTE1NC4wMTIsODQuMTA5YzEuNTk3LDMxLjkzOCw0NS43NzksMjQxLjY2NCw5OC40NzMsMTc4LjMxNmMxOS4yNTYtMjMuMTY2LDM2LjY3MS00MS4zMzUsMzYuNjcxLTQxLjMzNSIvPiYjeGE7PHBhdGggZD0iTTI2MC4zNDksMjYuMjA3Yy01LjU5MSwxLjc1Myw4OS44NDgtMzQuODg5LDE0NC4wODcsMzQuNDE3YzE5LjE1OSwyNC40ODQtMy4wNDMsMTI0LjUxOS01Ni4xNTMsMjAzLjMyOSIvPiYjeGE7PHBhdGggZD0iTTM0OC4yODIsMjYzLjk1M2MwLDAsMy40NjEsMTcuMDM2LDUzLjc2NCw2LjY1M2MyMi4wNC00LjU1Miw4Ljc3NiwxMi43NzQtMTMuNTc3LDIzLjE1NWMtMTguMzQ1LDguNTE0LTU5LjQ3NCwxMC42OTYtNjAuMTQ2LTEuMDY5Yy0xLjcyOS0zMC4zNTUsMjEuNjQ3LTIxLjEzMywxOS45Ni0yOC43MzljLTEuNTI1LTYuODUtMTEuOTc5LTEzLjU3My0xOC44OTQtMzAuMzM4ICAgIGMtNi4wMzctMTQuNjMzLTgyLjc5Ni0xMjYuODQ5LDIxLjI4Ny0xMTAuMTgzYzMuODEzLTAuNzg5LTI3LjE0Ni05OS4wMDItMTI0LjU1My0xMDAuNTk5Yy05Ny4zODUtMS41OTctOTQuMTksMTE5Ljc2Mi05NC4xOSwxMTkuNzYyIiBzdHlsZT0ic3Ryb2tlLWxpbmVqb2luOmJldmVsOyIvPiYjeGE7PHBhdGggZD0iTTE4OC42MDQsMjc0LjMzNGMtMTMuNTc3LDE1LjE2Ni05LjU4NCwxNy44MjktMzYuNzIzLDIzLjQxN2MtMjcuNDU5LDUuNjYtMTEuMzI2LDE1LjczMy0wLjc5NywxOC4zNjVjMTIuNzY4LDMuMTk1LDQyLjMwNyw3LjcxOCw2Mi4yNjYtMjAuMjI5YzYuMDc4LTguNTA5LTAuMDM2LTIyLjA4Ni04LjM4NS0yNS41NDdjLTQuMDM0LTEuNjcxLTkuNDI4LTMuNzY1LTE2LjM2MSwzLjk5NHoiLz4mI3hhOzxwYXRoIGQ9Ik0xODcuNzE1LDI3NC4wNjljLTEuMzY4LTguOTE3LDIuOTMtMTkuNTI4LDcuNTM2LTMxLjk0MmM2LjkyMi0xOC42MjYsMjIuODkzLTM3LjI1NSwxMC4xMTctOTYuMzM5Yy05LjUyMy00NC4wMjktNzMuMzk2LTkuMTYzLTczLjQzNi0zLjE5M2MtMC4wMzksNS45NjgsMi44ODksMzAuMjYtMS4wNjcsNTguNTQ4Yy01LjE2MiwzNi45MTMsMjMuNDg4LDY4LjEzMiw1Ni40NzksNjQuOTM4Ii8+JiN4YTs8cGF0aCBkPSJNMTcyLjUxNywxNDEuN2MtMC4yODgsMi4wMzksMy43MzMsNy40OCw4Ljk3Niw4LjIwN2M1LjIzNCwwLjczLDkuNzE0LTMuNTIyLDkuOTk4LTUuNTU5YzAuMjg0LTIuMDM5LTMuNzMyLTQuMjg1LTguOTc3LTUuMDE1Yy01LjIzNy0wLjczMS05LjcxOSwwLjMzMy05Ljk5NiwyLjM2N3oiIHN0eWxlPSJmaWxsOiNGRkZGRkY7c3Ryb2tlLXdpZHRoOjQuMTU1O3N0cm9rZS1saW5lY2FwOmJ1dHQ7c3Ryb2tlLWxpbmVqb2luOm1pdGVyOyIvPiYjeGE7PHBhdGggZD0iTTMzMS45NDEsMTM3LjU0M2MwLjI4NCwyLjAzOS0zLjczMiw3LjQ4LTguOTc2LDguMjA3Yy01LjIzOCwwLjczLTkuNzE4LTMuNTIyLTEwLjAwNS01LjU1OWMtMC4yNzctMi4wMzksMy43NC00LjI4NSw4Ljk3OS01LjAxNWM1LjIzOS0wLjczLDkuNzE4LDAuMzMzLDEwLjAwMiwyLjM2OHoiIHN0eWxlPSJmaWxsOiNGRkZGRkY7c3Ryb2tlLXdpZHRoOjIuMDc3NTtzdHJva2UtbGluZWNhcDpidXR0O3N0cm9rZS1saW5lam9pbjptaXRlcjsiLz4mI3hhOzxwYXRoIGQ9Ik0zNTAuNjc2LDEyMy40MzJjMC44NjMsMTUuOTk0LTMuNDQ1LDI2Ljg4OC0zLjk4OCw0My45MTRjLTAuODA0LDI0Ljc0OCwxMS43OTksNTMuMDc0LTcuMTkxLDgxLjQzNSIvPiYjeGE7PHBhdGggZD0iTTAsNjAuMjMyIiBzdHlsZT0ic3Ryb2tlLXdpZHRoOjM7Ii8+JiN4YTs8L2c+JiN4YTs8L3N2Zz4=;" vertex="1" parent="c-d4OfnDCnfcvoNjXBJn-70">
          <mxGeometry x="22.25" width="20.25" height="20" as="geometry" />
        </mxCell>
        <mxCell id="c-d4OfnDCnfcvoNjXBJn-73" value="" style="endArrow=none;dashed=1;html=1;dashPattern=1 3;strokeWidth=2;rounded=0;fillColor=#a20025;strokeColor=#6F0000;" edge="1" parent="1" source="c-d4OfnDCnfcvoNjXBJn-60" target="c-d4OfnDCnfcvoNjXBJn-25">
          <mxGeometry width="50" height="50" relative="1" as="geometry">
            <mxPoint x="-140" y="480" as="sourcePoint" />
            <mxPoint x="-80" y="491.0769230769231" as="targetPoint" />
          </mxGeometry>
        </mxCell>
        <mxCell id="c-d4OfnDCnfcvoNjXBJn-74" value="&lt;font style=&quot;font-size: 8px;&quot;&gt;Tâches planifiées&lt;/font&gt;" style="image;html=1;image=img/lib/clip_art/general/Gear_128x128.png" vertex="1" parent="1">
          <mxGeometry x="-190" y="490" width="30" height="25" as="geometry" />
        </mxCell>
        <mxCell id="c-d4OfnDCnfcvoNjXBJn-75" value="" style="endArrow=none;dashed=1;html=1;dashPattern=1 3;strokeWidth=2;rounded=0;fillColor=#a20025;strokeColor=#6F0000;" edge="1" parent="1" source="c-d4OfnDCnfcvoNjXBJn-60" target="c-d4OfnDCnfcvoNjXBJn-53">
          <mxGeometry width="50" height="50" relative="1" as="geometry">
            <mxPoint x="-180" y="620" as="sourcePoint" />
            <mxPoint x="-70" y="620" as="targetPoint" />
          </mxGeometry>
        </mxCell>
        <mxCell id="c-d4OfnDCnfcvoNjXBJn-76" value="" style="endArrow=none;dashed=1;html=1;dashPattern=1 3;strokeWidth=2;rounded=0;fillColor=#a20025;strokeColor=#6F0000;" edge="1" parent="1" source="c-d4OfnDCnfcvoNjXBJn-74" target="c-d4OfnDCnfcvoNjXBJn-60">
          <mxGeometry width="50" height="50" relative="1" as="geometry">
            <mxPoint x="-150" y="493.92" as="sourcePoint" />
            <mxPoint x="-90" y="504.9969230769231" as="targetPoint" />
          </mxGeometry>
        </mxCell>
        <mxCell id="c-d4OfnDCnfcvoNjXBJn-91" value="" style="endArrow=none;dashed=1;html=1;dashPattern=1 3;strokeWidth=2;rounded=0;fillColor=#a20025;strokeColor=#6F0000;exitX=0.5;exitY=0;exitDx=0;exitDy=0;" edge="1" parent="1" source="c-d4OfnDCnfcvoNjXBJn-109" target="c-d4OfnDCnfcvoNjXBJn-129">
          <mxGeometry width="50" height="50" relative="1" as="geometry">
            <mxPoint x="210" y="440" as="sourcePoint" />
            <mxPoint x="252.37750683682793" y="490" as="targetPoint" />
          </mxGeometry>
        </mxCell>
        <mxCell id="c-d4OfnDCnfcvoNjXBJn-96" value="" style="endArrow=none;dashed=1;html=1;dashPattern=1 3;strokeWidth=2;rounded=0;fillColor=#a20025;strokeColor=#6F0000;" edge="1" parent="1">
          <mxGeometry width="50" height="50" relative="1" as="geometry">
            <mxPoint x="540" y="580" as="sourcePoint" />
            <mxPoint x="600" y="591.0769230769231" as="targetPoint" />
          </mxGeometry>
        </mxCell>
        <mxCell id="c-d4OfnDCnfcvoNjXBJn-97" value="" style="endArrow=none;dashed=1;html=1;dashPattern=1 3;strokeWidth=2;rounded=0;fillColor=#a20025;strokeColor=#6F0000;" edge="1" parent="1">
          <mxGeometry width="50" height="50" relative="1" as="geometry">
            <mxPoint x="540" y="580" as="sourcePoint" />
            <mxPoint x="600" y="591.0769230769231" as="targetPoint" />
          </mxGeometry>
        </mxCell>
        <mxCell id="c-d4OfnDCnfcvoNjXBJn-98" value="" style="endArrow=none;dashed=1;html=1;dashPattern=1 3;strokeWidth=2;rounded=0;fillColor=#a20025;strokeColor=#6F0000;entryX=0;entryY=0.5;entryDx=0;entryDy=0;" edge="1" parent="1" source="c-d4OfnDCnfcvoNjXBJn-50" target="c-d4OfnDCnfcvoNjXBJn-109">
          <mxGeometry width="50" height="50" relative="1" as="geometry">
            <mxPoint x="550" y="570" as="sourcePoint" />
            <mxPoint x="170" y="490" as="targetPoint" />
          </mxGeometry>
        </mxCell>
        <mxCell id="c-d4OfnDCnfcvoNjXBJn-99" value="" style="endArrow=none;dashed=1;html=1;dashPattern=1 3;strokeWidth=2;rounded=0;fillColor=#a20025;strokeColor=#6F0000;entryX=0;entryY=0;entryDx=0;entryDy=0;" edge="1" parent="1" source="c-d4OfnDCnfcvoNjXBJn-25" target="c-d4OfnDCnfcvoNjXBJn-109">
          <mxGeometry width="50" height="50" relative="1" as="geometry">
            <mxPoint x="120" y="469.46" as="sourcePoint" />
            <mxPoint x="180" y="440" as="targetPoint" />
          </mxGeometry>
        </mxCell>
        <mxCell id="c-d4OfnDCnfcvoNjXBJn-100" value="" style="endArrow=none;dashed=1;html=1;dashPattern=1 3;strokeWidth=2;rounded=0;fillColor=#a20025;strokeColor=#6F0000;" edge="1" parent="1">
          <mxGeometry width="50" height="50" relative="1" as="geometry">
            <mxPoint x="540" y="580" as="sourcePoint" />
            <mxPoint x="600" y="591.0769230769231" as="targetPoint" />
          </mxGeometry>
        </mxCell>
        <mxCell id="c-d4OfnDCnfcvoNjXBJn-101" value="" style="endArrow=none;dashed=1;html=1;dashPattern=1 3;strokeWidth=2;rounded=0;fillColor=#a20025;strokeColor=#6F0000;" edge="1" parent="1">
          <mxGeometry width="50" height="50" relative="1" as="geometry">
            <mxPoint x="540" y="580" as="sourcePoint" />
            <mxPoint x="600" y="591.0769230769231" as="targetPoint" />
          </mxGeometry>
        </mxCell>
        <mxCell id="c-d4OfnDCnfcvoNjXBJn-102" value="" style="endArrow=none;dashed=1;html=1;dashPattern=1 3;strokeWidth=2;rounded=0;fillColor=#a20025;strokeColor=#6F0000;" edge="1" parent="1">
          <mxGeometry width="50" height="50" relative="1" as="geometry">
            <mxPoint x="560" y="550" as="sourcePoint" />
            <mxPoint x="620" y="561.0769230769231" as="targetPoint" />
          </mxGeometry>
        </mxCell>
        <mxCell id="c-d4OfnDCnfcvoNjXBJn-103" value="" style="endArrow=none;dashed=1;html=1;dashPattern=1 3;strokeWidth=2;rounded=0;fillColor=#a20025;strokeColor=#6F0000;exitX=1;exitY=0.5;exitDx=0;exitDy=0;" edge="1" parent="1" source="c-d4OfnDCnfcvoNjXBJn-109" target="c-d4OfnDCnfcvoNjXBJn-122">
          <mxGeometry width="50" height="50" relative="1" as="geometry">
            <mxPoint x="200" y="510" as="sourcePoint" />
            <mxPoint x="300" y="519.7475776397515" as="targetPoint" />
          </mxGeometry>
        </mxCell>
        <mxCell id="c-d4OfnDCnfcvoNjXBJn-104" value="" style="endArrow=none;dashed=1;html=1;dashPattern=1 3;strokeWidth=2;rounded=0;fillColor=#a20025;strokeColor=#6F0000;exitX=1;exitY=1;exitDx=0;exitDy=0;" edge="1" parent="1" source="c-d4OfnDCnfcvoNjXBJn-109" target="c-d4OfnDCnfcvoNjXBJn-118">
          <mxGeometry width="50" height="50" relative="1" as="geometry">
            <mxPoint x="190" y="540" as="sourcePoint" />
            <mxPoint x="260" y="576.487246736449" as="targetPoint" />
          </mxGeometry>
        </mxCell>
        <mxCell id="c-d4OfnDCnfcvoNjXBJn-105" value="" style="endArrow=none;dashed=1;html=1;dashPattern=1 3;strokeWidth=2;rounded=0;fillColor=#a20025;strokeColor=#6F0000;entryX=0;entryY=1;entryDx=0;entryDy=0;" edge="1" parent="1" source="c-d4OfnDCnfcvoNjXBJn-53" target="c-d4OfnDCnfcvoNjXBJn-109">
          <mxGeometry width="50" height="50" relative="1" as="geometry">
            <mxPoint x="510" y="590" as="sourcePoint" />
            <mxPoint x="180" y="570" as="targetPoint" />
          </mxGeometry>
        </mxCell>
        <mxCell id="c-d4OfnDCnfcvoNjXBJn-106" value="" style="group" vertex="1" connectable="0" parent="1">
          <mxGeometry x="270" y="680" width="42.5" height="55" as="geometry" />
        </mxCell>
        <mxCell id="c-d4OfnDCnfcvoNjXBJn-107" value="" style="verticalLabelPosition=bottom;sketch=0;aspect=fixed;html=1;verticalAlign=top;strokeColor=#b85450;align=center;outlineConnect=0;shape=mxgraph.citrix.database;fillColor=#f8cecc;" vertex="1" parent="c-d4OfnDCnfcvoNjXBJn-106">
          <mxGeometry y="5" width="42.5" height="50" as="geometry" />
        </mxCell>
        <mxCell id="c-d4OfnDCnfcvoNjXBJn-108" value="" style="shape=image;verticalLabelPosition=bottom;labelBackgroundColor=default;verticalAlign=top;aspect=fixed;imageAspect=0;editableCssRules=.*;image=data:image/svg+xml,PHN2ZyB4bWxucz0iaHR0cDovL3d3dy53My5vcmcvMjAwMC9zdmciIHhtbDpzcGFjZT0icHJlc2VydmUiIHZpZXdCb3g9IjAgMTguMDc2MzI4Mjc3NTg3ODkgNDEzLjY5ODI0MjE4NzUgNDA5LjQ0MTQ5NzgwMjczNDQiIGhlaWdodD0iNDA5LjQ0MTQ5NzgwMjczNDQiIHdpZHRoPSI0MTMuNjk4MjQyMTg3NSI+JiN4YTs8ZyBzdHlsZT0iZmlsbC1ydWxlOm5vbnplcm87Y2xpcC1ydWxlOm5vbnplcm87c3Ryb2tlOiMwMDAwMDA7c3Ryb2tlLW1pdGVybGltaXQ6NDsiIGlkPSJvcmdpbmFsIj4mI3hhOwk8L2c+JiN4YTs8ZyBzdHlsZT0iZmlsbC1ydWxlOm5vbnplcm87Y2xpcC1ydWxlOm5vbnplcm87ZmlsbDpub25lO3N0cm9rZTojRkZGRkZGO3N0cm9rZS13aWR0aDoxMi40NjUxO3N0cm9rZS1saW5lY2FwOnJvdW5kO3N0cm9rZS1saW5lam9pbjpyb3VuZDtzdHJva2UtbWl0ZXJsaW1pdDo0OyIgaWQ9IkxheWVyX3gwMDIwXzMiPiYjeGE7PHBhdGggZD0iTTMyMy4yMDUsMzI0LjIyN2MyLjgzMy0yMy42MDEsMS45ODQtMjcuMDYyLDE5LjU2My0yMy4yMzlsNC40NjMsMC4zOTJjMTMuNTE3LDAuNjE1LDMxLjE5OS0yLjE3NCw0MS41ODctN2MyMi4zNjItMTAuMzc2LDM1LjYyMi0yNy43LDEzLjU3Mi0yMy4xNDhjLTUwLjI5NywxMC4zNzYtNTMuNzU1LTYuNjU1LTUzLjc1NS02LjY1NWM1My4xMTEtNzguODAzLDc1LjMxMy0xNzguODM2LDU2LjE0OS0yMDMuMzIyICAgIEMzNTIuNTE0LTUuNTM0LDI2Mi4wMzYsMjYuMDQ5LDI2MC41MjIsMjYuODY5bC0wLjQ4MiwwLjA4OWMtOS45MzgtMi4wNjItMjEuMDYtMy4yOTQtMzMuNTU0LTMuNDk2Yy0yMi43NjEtMC4zNzQtNDAuMDMyLDUuOTY3LTUzLjEzMywxNS45MDRjMCwwLTE2MS40MDgtNjYuNDk4LTE1My44OTksODMuNjI4YzEuNTk3LDMxLjkzNiw0NS43NzcsMjQxLjY1NSw5OC40NywxNzguMzEgICAgYzE5LjI1OS0yMy4xNjMsMzcuODcxLTQyLjc0OCwzNy44NzEtNDIuNzQ4YzkuMjQyLDYuMTQsMjAuMzA3LDkuMjcyLDMxLjkxMiw4LjE0N2wwLjg5Ny0wLjc2NWMtMC4yODEsMi44NzYtMC4xNTcsNS42ODksMC4zNTksOS4wMTljLTEzLjU3MiwxNS4xNjctOS41ODQsMTcuODMtMzYuNzIzLDIzLjQxNmMtMjcuNDU3LDUuNjU5LTExLjMyNiwxNS43MzQtMC43OTcsMTguMzY3YzEyLjc2OCwzLjE5Myw0Mi4zMDUsNy43MTYsNjIuMjY4LTIwLjIyNCAgICBsLTAuNzk1LDMuMTg4YzUuMzI1LDQuMjYsNC45NjUsMzAuNjE5LDUuNzIsNDkuNDUyYzAuNzU2LDE4LjgzNCwyLjAxNywzNi40MDksNS44NTYsNDYuNzcxYzMuODM5LDEwLjM2LDguMzY5LDM3LjA1LDQ0LjAzNiwyOS40MDZjMjkuODA5LTYuMzg4LDUyLjYtMTUuNTgyLDU0LjY3Ny0xMDEuMTA3IiBzdHlsZT0iZmlsbDojMDAwMDAwO3N0cm9rZTojMDAwMDAwO3N0cm9rZS13aWR0aDozNy4zOTUzO3N0cm9rZS1saW5lY2FwOmJ1dHQ7c3Ryb2tlLWxpbmVqb2luOm1pdGVyOyIvPiYjeGE7PHBhdGggZD0iTTQwMi4zOTUsMjcxLjIzYy01MC4zMDIsMTAuMzc2LTUzLjc2LTYuNjU1LTUzLjc2LTYuNjU1YzUzLjExMS03OC44MDgsNzUuMzEzLTE3OC44NDMsNTYuMTUzLTIwMy4zMjZjLTUyLjI3LTY2Ljc4NS0xNDIuNzUyLTM1LjItMTQ0LjI2Mi0zNC4zOGwtMC40ODYsMC4wODdjLTkuOTM4LTIuMDYzLTIxLjA2LTMuMjkyLTMzLjU2LTMuNDk2Yy0yMi43NjEtMC4zNzMtNDAuMDI2LDUuOTY3LTUzLjEyNywxNS45MDIgICAgYzAsMC0xNjEuNDExLTY2LjQ5NS0xNTMuOTA0LDgzLjYzYzEuNTk3LDMxLjkzOCw0NS43NzYsMjQxLjY1Nyw5OC40NzEsMTc4LjMxMmMxOS4yNi0yMy4xNjMsMzcuODY5LTQyLjc0OCwzNy44NjktNDIuNzQ4YzkuMjQzLDYuMTQsMjAuMzA4LDkuMjcyLDMxLjkwOCw4LjE0N2wwLjkwMS0wLjc2NWMtMC4yOCwyLjg3Ni0wLjE1Miw1LjY4OSwwLjM2MSw5LjAxOWMtMTMuNTc1LDE1LjE2Ny05LjU4NiwxNy44My0zNi43MjMsMjMuNDE2ICAgIGMtMjcuNDU5LDUuNjU5LTExLjMyOCwxNS43MzQtMC43OTYsMTguMzY3YzEyLjc2OCwzLjE5Myw0Mi4zMDcsNy43MTYsNjIuMjY2LTIwLjIyNGwtMC43OTYsMy4xODhjNS4zMTksNC4yNiw5LjA1NCwyNy43MTEsOC40MjgsNDguOTY5Yy0wLjYyNiwyMS4yNTktMS4wNDQsMzUuODU0LDMuMTQ3LDQ3LjI1NGM0LjE5MSwxMS40LDguMzY4LDM3LjA1LDQ0LjA0MiwyOS40MDZjMjkuODA5LTYuMzg4LDQ1LjI1Ni0yMi45NDIsNDcuNDA1LTUwLjU1NSAgICBjMS41MjUtMTkuNjMxLDQuOTc2LTE2LjcyOSw1LjE5NC0zNC4yOGwyLjc2OC04LjMwOWMzLjE5Mi0yNi42MTEsMC41MDctMzUuMTk2LDE4Ljg3Mi0zMS4yMDNsNC40NjMsMC4zOTJjMTMuNTE3LDAuNjE1LDMxLjIwOC0yLjE3NCw0MS41OTEtN2MyMi4zNTgtMTAuMzc2LDM1LjYxOC0yNy43LDEzLjU3My0yMy4xNDh6IiBzdHlsZT0iZmlsbDojMzM2NzkxO3N0cm9rZTpub25lOyIvPiYjeGE7PHBhdGggZD0iTTIxNS44NjYsMjg2LjQ4NGMtMS4zODUsNDkuNTE2LDAuMzQ4LDk5LjM3Nyw1LjE5MywxMTEuNDk1YzQuODQ4LDEyLjExOCwxNS4yMjMsMzUuNjg4LDUwLjksMjguMDQ1YzI5LjgwNi02LjM5LDQwLjY1MS0xOC43NTYsNDUuMzU3LTQ2LjA1MWMzLjQ2Ni0yMC4wODIsMTAuMTQ4LTc1Ljg1NCwxMS4wMDUtODcuMjgxIi8+JiN4YTs8cGF0aCBkPSJNMTczLjEwNCwzOC4yNTZjMCwwLTE2MS41MjEtNjYuMDE2LTE1NC4wMTIsODQuMTA5YzEuNTk3LDMxLjkzOCw0NS43NzksMjQxLjY2NCw5OC40NzMsMTc4LjMxNmMxOS4yNTYtMjMuMTY2LDM2LjY3MS00MS4zMzUsMzYuNjcxLTQxLjMzNSIvPiYjeGE7PHBhdGggZD0iTTI2MC4zNDksMjYuMjA3Yy01LjU5MSwxLjc1Myw4OS44NDgtMzQuODg5LDE0NC4wODcsMzQuNDE3YzE5LjE1OSwyNC40ODQtMy4wNDMsMTI0LjUxOS01Ni4xNTMsMjAzLjMyOSIvPiYjeGE7PHBhdGggZD0iTTM0OC4yODIsMjYzLjk1M2MwLDAsMy40NjEsMTcuMDM2LDUzLjc2NCw2LjY1M2MyMi4wNC00LjU1Miw4Ljc3NiwxMi43NzQtMTMuNTc3LDIzLjE1NWMtMTguMzQ1LDguNTE0LTU5LjQ3NCwxMC42OTYtNjAuMTQ2LTEuMDY5Yy0xLjcyOS0zMC4zNTUsMjEuNjQ3LTIxLjEzMywxOS45Ni0yOC43MzljLTEuNTI1LTYuODUtMTEuOTc5LTEzLjU3My0xOC44OTQtMzAuMzM4ICAgIGMtNi4wMzctMTQuNjMzLTgyLjc5Ni0xMjYuODQ5LDIxLjI4Ny0xMTAuMTgzYzMuODEzLTAuNzg5LTI3LjE0Ni05OS4wMDItMTI0LjU1My0xMDAuNTk5Yy05Ny4zODUtMS41OTctOTQuMTksMTE5Ljc2Mi05NC4xOSwxMTkuNzYyIiBzdHlsZT0ic3Ryb2tlLWxpbmVqb2luOmJldmVsOyIvPiYjeGE7PHBhdGggZD0iTTE4OC42MDQsMjc0LjMzNGMtMTMuNTc3LDE1LjE2Ni05LjU4NCwxNy44MjktMzYuNzIzLDIzLjQxN2MtMjcuNDU5LDUuNjYtMTEuMzI2LDE1LjczMy0wLjc5NywxOC4zNjVjMTIuNzY4LDMuMTk1LDQyLjMwNyw3LjcxOCw2Mi4yNjYtMjAuMjI5YzYuMDc4LTguNTA5LTAuMDM2LTIyLjA4Ni04LjM4NS0yNS41NDdjLTQuMDM0LTEuNjcxLTkuNDI4LTMuNzY1LTE2LjM2MSwzLjk5NHoiLz4mI3hhOzxwYXRoIGQ9Ik0xODcuNzE1LDI3NC4wNjljLTEuMzY4LTguOTE3LDIuOTMtMTkuNTI4LDcuNTM2LTMxLjk0MmM2LjkyMi0xOC42MjYsMjIuODkzLTM3LjI1NSwxMC4xMTctOTYuMzM5Yy05LjUyMy00NC4wMjktNzMuMzk2LTkuMTYzLTczLjQzNi0zLjE5M2MtMC4wMzksNS45NjgsMi44ODksMzAuMjYtMS4wNjcsNTguNTQ4Yy01LjE2MiwzNi45MTMsMjMuNDg4LDY4LjEzMiw1Ni40NzksNjQuOTM4Ii8+JiN4YTs8cGF0aCBkPSJNMTcyLjUxNywxNDEuN2MtMC4yODgsMi4wMzksMy43MzMsNy40OCw4Ljk3Niw4LjIwN2M1LjIzNCwwLjczLDkuNzE0LTMuNTIyLDkuOTk4LTUuNTU5YzAuMjg0LTIuMDM5LTMuNzMyLTQuMjg1LTguOTc3LTUuMDE1Yy01LjIzNy0wLjczMS05LjcxOSwwLjMzMy05Ljk5NiwyLjM2N3oiIHN0eWxlPSJmaWxsOiNGRkZGRkY7c3Ryb2tlLXdpZHRoOjQuMTU1O3N0cm9rZS1saW5lY2FwOmJ1dHQ7c3Ryb2tlLWxpbmVqb2luOm1pdGVyOyIvPiYjeGE7PHBhdGggZD0iTTMzMS45NDEsMTM3LjU0M2MwLjI4NCwyLjAzOS0zLjczMiw3LjQ4LTguOTc2LDguMjA3Yy01LjIzOCwwLjczLTkuNzE4LTMuNTIyLTEwLjAwNS01LjU1OWMtMC4yNzctMi4wMzksMy43NC00LjI4NSw4Ljk3OS01LjAxNWM1LjIzOS0wLjczLDkuNzE4LDAuMzMzLDEwLjAwMiwyLjM2OHoiIHN0eWxlPSJmaWxsOiNGRkZGRkY7c3Ryb2tlLXdpZHRoOjIuMDc3NTtzdHJva2UtbGluZWNhcDpidXR0O3N0cm9rZS1saW5lam9pbjptaXRlcjsiLz4mI3hhOzxwYXRoIGQ9Ik0zNTAuNjc2LDEyMy40MzJjMC44NjMsMTUuOTk0LTMuNDQ1LDI2Ljg4OC0zLjk4OCw0My45MTRjLTAuODA0LDI0Ljc0OCwxMS43OTksNTMuMDc0LTcuMTkxLDgxLjQzNSIvPiYjeGE7PHBhdGggZD0iTTAsNjAuMjMyIiBzdHlsZT0ic3Ryb2tlLXdpZHRoOjM7Ii8+JiN4YTs8L2c+JiN4YTs8L3N2Zz4=;" vertex="1" parent="c-d4OfnDCnfcvoNjXBJn-106">
          <mxGeometry x="22.25" width="20.25" height="20" as="geometry" />
        </mxCell>
        <mxCell id="c-d4OfnDCnfcvoNjXBJn-115" value="&lt;font style=&quot;font-size: 8px;&quot;&gt;MCA&lt;/font&gt;" style="text;html=1;align=center;verticalAlign=middle;whiteSpace=wrap;rounded=0;" vertex="1" parent="c-d4OfnDCnfcvoNjXBJn-106">
          <mxGeometry x="2.5" y="30" width="40" height="20" as="geometry" />
        </mxCell>
        <mxCell id="c-d4OfnDCnfcvoNjXBJn-109" value="" style="ellipse;whiteSpace=wrap;html=1;aspect=fixed;" vertex="1" parent="1">
          <mxGeometry x="200" y="552.76" width="10" height="10" as="geometry" />
        </mxCell>
        <mxCell id="c-d4OfnDCnfcvoNjXBJn-110" value="" style="endArrow=none;dashed=1;html=1;dashPattern=1 3;strokeWidth=2;rounded=0;fillColor=#a20025;strokeColor=#6F0000;" edge="1" parent="1" source="c-d4OfnDCnfcvoNjXBJn-53" target="c-d4OfnDCnfcvoNjXBJn-107">
          <mxGeometry width="50" height="50" relative="1" as="geometry">
            <mxPoint x="200" y="580" as="sourcePoint" />
            <mxPoint x="271" y="608" as="targetPoint" />
          </mxGeometry>
        </mxCell>
        <mxCell id="c-d4OfnDCnfcvoNjXBJn-116" value="&lt;font size=&quot;1&quot;&gt;EAR&lt;/font&gt;" style="text;html=1;align=center;verticalAlign=middle;whiteSpace=wrap;rounded=0;" vertex="1" parent="1">
          <mxGeometry x="-630" y="705" width="60" height="30" as="geometry" />
        </mxCell>
        <mxCell id="c-d4OfnDCnfcvoNjXBJn-117" value="" style="group" vertex="1" connectable="0" parent="1">
          <mxGeometry x="270" y="610" width="42.5" height="55" as="geometry" />
        </mxCell>
        <mxCell id="c-d4OfnDCnfcvoNjXBJn-118" value="" style="verticalLabelPosition=bottom;sketch=0;aspect=fixed;html=1;verticalAlign=top;strokeColor=#b85450;align=center;outlineConnect=0;shape=mxgraph.citrix.database;fillColor=#f8cecc;" vertex="1" parent="c-d4OfnDCnfcvoNjXBJn-117">
          <mxGeometry y="5" width="42.5" height="50" as="geometry" />
        </mxCell>
        <mxCell id="c-d4OfnDCnfcvoNjXBJn-119" value="" style="shape=image;verticalLabelPosition=bottom;labelBackgroundColor=default;verticalAlign=top;aspect=fixed;imageAspect=0;editableCssRules=.*;image=data:image/svg+xml,PHN2ZyB4bWxucz0iaHR0cDovL3d3dy53My5vcmcvMjAwMC9zdmciIHhtbDpzcGFjZT0icHJlc2VydmUiIHZpZXdCb3g9IjAgMTguMDc2MzI4Mjc3NTg3ODkgNDEzLjY5ODI0MjE4NzUgNDA5LjQ0MTQ5NzgwMjczNDQiIGhlaWdodD0iNDA5LjQ0MTQ5NzgwMjczNDQiIHdpZHRoPSI0MTMuNjk4MjQyMTg3NSI+JiN4YTs8ZyBzdHlsZT0iZmlsbC1ydWxlOm5vbnplcm87Y2xpcC1ydWxlOm5vbnplcm87c3Ryb2tlOiMwMDAwMDA7c3Ryb2tlLW1pdGVybGltaXQ6NDsiIGlkPSJvcmdpbmFsIj4mI3hhOwk8L2c+JiN4YTs8ZyBzdHlsZT0iZmlsbC1ydWxlOm5vbnplcm87Y2xpcC1ydWxlOm5vbnplcm87ZmlsbDpub25lO3N0cm9rZTojRkZGRkZGO3N0cm9rZS13aWR0aDoxMi40NjUxO3N0cm9rZS1saW5lY2FwOnJvdW5kO3N0cm9rZS1saW5lam9pbjpyb3VuZDtzdHJva2UtbWl0ZXJsaW1pdDo0OyIgaWQ9IkxheWVyX3gwMDIwXzMiPiYjeGE7PHBhdGggZD0iTTMyMy4yMDUsMzI0LjIyN2MyLjgzMy0yMy42MDEsMS45ODQtMjcuMDYyLDE5LjU2My0yMy4yMzlsNC40NjMsMC4zOTJjMTMuNTE3LDAuNjE1LDMxLjE5OS0yLjE3NCw0MS41ODctN2MyMi4zNjItMTAuMzc2LDM1LjYyMi0yNy43LDEzLjU3Mi0yMy4xNDhjLTUwLjI5NywxMC4zNzYtNTMuNzU1LTYuNjU1LTUzLjc1NS02LjY1NWM1My4xMTEtNzguODAzLDc1LjMxMy0xNzguODM2LDU2LjE0OS0yMDMuMzIyICAgIEMzNTIuNTE0LTUuNTM0LDI2Mi4wMzYsMjYuMDQ5LDI2MC41MjIsMjYuODY5bC0wLjQ4MiwwLjA4OWMtOS45MzgtMi4wNjItMjEuMDYtMy4yOTQtMzMuNTU0LTMuNDk2Yy0yMi43NjEtMC4zNzQtNDAuMDMyLDUuOTY3LTUzLjEzMywxNS45MDRjMCwwLTE2MS40MDgtNjYuNDk4LTE1My44OTksODMuNjI4YzEuNTk3LDMxLjkzNiw0NS43NzcsMjQxLjY1NSw5OC40NywxNzguMzEgICAgYzE5LjI1OS0yMy4xNjMsMzcuODcxLTQyLjc0OCwzNy44NzEtNDIuNzQ4YzkuMjQyLDYuMTQsMjAuMzA3LDkuMjcyLDMxLjkxMiw4LjE0N2wwLjg5Ny0wLjc2NWMtMC4yODEsMi44NzYtMC4xNTcsNS42ODksMC4zNTksOS4wMTljLTEzLjU3MiwxNS4xNjctOS41ODQsMTcuODMtMzYuNzIzLDIzLjQxNmMtMjcuNDU3LDUuNjU5LTExLjMyNiwxNS43MzQtMC43OTcsMTguMzY3YzEyLjc2OCwzLjE5Myw0Mi4zMDUsNy43MTYsNjIuMjY4LTIwLjIyNCAgICBsLTAuNzk1LDMuMTg4YzUuMzI1LDQuMjYsNC45NjUsMzAuNjE5LDUuNzIsNDkuNDUyYzAuNzU2LDE4LjgzNCwyLjAxNywzNi40MDksNS44NTYsNDYuNzcxYzMuODM5LDEwLjM2LDguMzY5LDM3LjA1LDQ0LjAzNiwyOS40MDZjMjkuODA5LTYuMzg4LDUyLjYtMTUuNTgyLDU0LjY3Ny0xMDEuMTA3IiBzdHlsZT0iZmlsbDojMDAwMDAwO3N0cm9rZTojMDAwMDAwO3N0cm9rZS13aWR0aDozNy4zOTUzO3N0cm9rZS1saW5lY2FwOmJ1dHQ7c3Ryb2tlLWxpbmVqb2luOm1pdGVyOyIvPiYjeGE7PHBhdGggZD0iTTQwMi4zOTUsMjcxLjIzYy01MC4zMDIsMTAuMzc2LTUzLjc2LTYuNjU1LTUzLjc2LTYuNjU1YzUzLjExMS03OC44MDgsNzUuMzEzLTE3OC44NDMsNTYuMTUzLTIwMy4zMjZjLTUyLjI3LTY2Ljc4NS0xNDIuNzUyLTM1LjItMTQ0LjI2Mi0zNC4zOGwtMC40ODYsMC4wODdjLTkuOTM4LTIuMDYzLTIxLjA2LTMuMjkyLTMzLjU2LTMuNDk2Yy0yMi43NjEtMC4zNzMtNDAuMDI2LDUuOTY3LTUzLjEyNywxNS45MDIgICAgYzAsMC0xNjEuNDExLTY2LjQ5NS0xNTMuOTA0LDgzLjYzYzEuNTk3LDMxLjkzOCw0NS43NzYsMjQxLjY1Nyw5OC40NzEsMTc4LjMxMmMxOS4yNi0yMy4xNjMsMzcuODY5LTQyLjc0OCwzNy44NjktNDIuNzQ4YzkuMjQzLDYuMTQsMjAuMzA4LDkuMjcyLDMxLjkwOCw4LjE0N2wwLjkwMS0wLjc2NWMtMC4yOCwyLjg3Ni0wLjE1Miw1LjY4OSwwLjM2MSw5LjAxOWMtMTMuNTc1LDE1LjE2Ny05LjU4NiwxNy44My0zNi43MjMsMjMuNDE2ICAgIGMtMjcuNDU5LDUuNjU5LTExLjMyOCwxNS43MzQtMC43OTYsMTguMzY3YzEyLjc2OCwzLjE5Myw0Mi4zMDcsNy43MTYsNjIuMjY2LTIwLjIyNGwtMC43OTYsMy4xODhjNS4zMTksNC4yNiw5LjA1NCwyNy43MTEsOC40MjgsNDguOTY5Yy0wLjYyNiwyMS4yNTktMS4wNDQsMzUuODU0LDMuMTQ3LDQ3LjI1NGM0LjE5MSwxMS40LDguMzY4LDM3LjA1LDQ0LjA0MiwyOS40MDZjMjkuODA5LTYuMzg4LDQ1LjI1Ni0yMi45NDIsNDcuNDA1LTUwLjU1NSAgICBjMS41MjUtMTkuNjMxLDQuOTc2LTE2LjcyOSw1LjE5NC0zNC4yOGwyLjc2OC04LjMwOWMzLjE5Mi0yNi42MTEsMC41MDctMzUuMTk2LDE4Ljg3Mi0zMS4yMDNsNC40NjMsMC4zOTJjMTMuNTE3LDAuNjE1LDMxLjIwOC0yLjE3NCw0MS41OTEtN2MyMi4zNTgtMTAuMzc2LDM1LjYxOC0yNy43LDEzLjU3My0yMy4xNDh6IiBzdHlsZT0iZmlsbDojMzM2NzkxO3N0cm9rZTpub25lOyIvPiYjeGE7PHBhdGggZD0iTTIxNS44NjYsMjg2LjQ4NGMtMS4zODUsNDkuNTE2LDAuMzQ4LDk5LjM3Nyw1LjE5MywxMTEuNDk1YzQuODQ4LDEyLjExOCwxNS4yMjMsMzUuNjg4LDUwLjksMjguMDQ1YzI5LjgwNi02LjM5LDQwLjY1MS0xOC43NTYsNDUuMzU3LTQ2LjA1MWMzLjQ2Ni0yMC4wODIsMTAuMTQ4LTc1Ljg1NCwxMS4wMDUtODcuMjgxIi8+JiN4YTs8cGF0aCBkPSJNMTczLjEwNCwzOC4yNTZjMCwwLTE2MS41MjEtNjYuMDE2LTE1NC4wMTIsODQuMTA5YzEuNTk3LDMxLjkzOCw0NS43NzksMjQxLjY2NCw5OC40NzMsMTc4LjMxNmMxOS4yNTYtMjMuMTY2LDM2LjY3MS00MS4zMzUsMzYuNjcxLTQxLjMzNSIvPiYjeGE7PHBhdGggZD0iTTI2MC4zNDksMjYuMjA3Yy01LjU5MSwxLjc1Myw4OS44NDgtMzQuODg5LDE0NC4wODcsMzQuNDE3YzE5LjE1OSwyNC40ODQtMy4wNDMsMTI0LjUxOS01Ni4xNTMsMjAzLjMyOSIvPiYjeGE7PHBhdGggZD0iTTM0OC4yODIsMjYzLjk1M2MwLDAsMy40NjEsMTcuMDM2LDUzLjc2NCw2LjY1M2MyMi4wNC00LjU1Miw4Ljc3NiwxMi43NzQtMTMuNTc3LDIzLjE1NWMtMTguMzQ1LDguNTE0LTU5LjQ3NCwxMC42OTYtNjAuMTQ2LTEuMDY5Yy0xLjcyOS0zMC4zNTUsMjEuNjQ3LTIxLjEzMywxOS45Ni0yOC43MzljLTEuNTI1LTYuODUtMTEuOTc5LTEzLjU3My0xOC44OTQtMzAuMzM4ICAgIGMtNi4wMzctMTQuNjMzLTgyLjc5Ni0xMjYuODQ5LDIxLjI4Ny0xMTAuMTgzYzMuODEzLTAuNzg5LTI3LjE0Ni05OS4wMDItMTI0LjU1My0xMDAuNTk5Yy05Ny4zODUtMS41OTctOTQuMTksMTE5Ljc2Mi05NC4xOSwxMTkuNzYyIiBzdHlsZT0ic3Ryb2tlLWxpbmVqb2luOmJldmVsOyIvPiYjeGE7PHBhdGggZD0iTTE4OC42MDQsMjc0LjMzNGMtMTMuNTc3LDE1LjE2Ni05LjU4NCwxNy44MjktMzYuNzIzLDIzLjQxN2MtMjcuNDU5LDUuNjYtMTEuMzI2LDE1LjczMy0wLjc5NywxOC4zNjVjMTIuNzY4LDMuMTk1LDQyLjMwNyw3LjcxOCw2Mi4yNjYtMjAuMjI5YzYuMDc4LTguNTA5LTAuMDM2LTIyLjA4Ni04LjM4NS0yNS41NDdjLTQuMDM0LTEuNjcxLTkuNDI4LTMuNzY1LTE2LjM2MSwzLjk5NHoiLz4mI3hhOzxwYXRoIGQ9Ik0xODcuNzE1LDI3NC4wNjljLTEuMzY4LTguOTE3LDIuOTMtMTkuNTI4LDcuNTM2LTMxLjk0MmM2LjkyMi0xOC42MjYsMjIuODkzLTM3LjI1NSwxMC4xMTctOTYuMzM5Yy05LjUyMy00NC4wMjktNzMuMzk2LTkuMTYzLTczLjQzNi0zLjE5M2MtMC4wMzksNS45NjgsMi44ODksMzAuMjYtMS4wNjcsNTguNTQ4Yy01LjE2MiwzNi45MTMsMjMuNDg4LDY4LjEzMiw1Ni40NzksNjQuOTM4Ii8+JiN4YTs8cGF0aCBkPSJNMTcyLjUxNywxNDEuN2MtMC4yODgsMi4wMzksMy43MzMsNy40OCw4Ljk3Niw4LjIwN2M1LjIzNCwwLjczLDkuNzE0LTMuNTIyLDkuOTk4LTUuNTU5YzAuMjg0LTIuMDM5LTMuNzMyLTQuMjg1LTguOTc3LTUuMDE1Yy01LjIzNy0wLjczMS05LjcxOSwwLjMzMy05Ljk5NiwyLjM2N3oiIHN0eWxlPSJmaWxsOiNGRkZGRkY7c3Ryb2tlLXdpZHRoOjQuMTU1O3N0cm9rZS1saW5lY2FwOmJ1dHQ7c3Ryb2tlLWxpbmVqb2luOm1pdGVyOyIvPiYjeGE7PHBhdGggZD0iTTMzMS45NDEsMTM3LjU0M2MwLjI4NCwyLjAzOS0zLjczMiw3LjQ4LTguOTc2LDguMjA3Yy01LjIzOCwwLjczLTkuNzE4LTMuNTIyLTEwLjAwNS01LjU1OWMtMC4yNzctMi4wMzksMy43NC00LjI4NSw4Ljk3OS01LjAxNWM1LjIzOS0wLjczLDkuNzE4LDAuMzMzLDEwLjAwMiwyLjM2OHoiIHN0eWxlPSJmaWxsOiNGRkZGRkY7c3Ryb2tlLXdpZHRoOjIuMDc3NTtzdHJva2UtbGluZWNhcDpidXR0O3N0cm9rZS1saW5lam9pbjptaXRlcjsiLz4mI3hhOzxwYXRoIGQ9Ik0zNTAuNjc2LDEyMy40MzJjMC44NjMsMTUuOTk0LTMuNDQ1LDI2Ljg4OC0zLjk4OCw0My45MTRjLTAuODA0LDI0Ljc0OCwxMS43OTksNTMuMDc0LTcuMTkxLDgxLjQzNSIvPiYjeGE7PHBhdGggZD0iTTAsNjAuMjMyIiBzdHlsZT0ic3Ryb2tlLXdpZHRoOjM7Ii8+JiN4YTs8L2c+JiN4YTs8L3N2Zz4=;" vertex="1" parent="c-d4OfnDCnfcvoNjXBJn-117">
          <mxGeometry x="22.25" width="20.25" height="20" as="geometry" />
        </mxCell>
        <mxCell id="c-d4OfnDCnfcvoNjXBJn-120" value="&lt;font style=&quot;font-size: 8px;&quot;&gt;EAR&lt;/font&gt;" style="text;html=1;align=center;verticalAlign=middle;whiteSpace=wrap;rounded=0;" vertex="1" parent="c-d4OfnDCnfcvoNjXBJn-117">
          <mxGeometry x="2.5" y="30" width="40" height="20" as="geometry" />
        </mxCell>
        <mxCell id="c-d4OfnDCnfcvoNjXBJn-121" value="" style="group" vertex="1" connectable="0" parent="1">
          <mxGeometry x="270" y="540" width="42.5" height="55" as="geometry" />
        </mxCell>
        <mxCell id="c-d4OfnDCnfcvoNjXBJn-122" value="" style="verticalLabelPosition=bottom;sketch=0;aspect=fixed;html=1;verticalAlign=top;strokeColor=#b85450;align=center;outlineConnect=0;shape=mxgraph.citrix.database;fillColor=#f8cecc;" vertex="1" parent="c-d4OfnDCnfcvoNjXBJn-121">
          <mxGeometry y="5" width="42.5" height="50" as="geometry" />
        </mxCell>
        <mxCell id="c-d4OfnDCnfcvoNjXBJn-123" value="" style="shape=image;verticalLabelPosition=bottom;labelBackgroundColor=default;verticalAlign=top;aspect=fixed;imageAspect=0;editableCssRules=.*;image=data:image/svg+xml,PHN2ZyB4bWxucz0iaHR0cDovL3d3dy53My5vcmcvMjAwMC9zdmciIHhtbDpzcGFjZT0icHJlc2VydmUiIHZpZXdCb3g9IjAgMTguMDc2MzI4Mjc3NTg3ODkgNDEzLjY5ODI0MjE4NzUgNDA5LjQ0MTQ5NzgwMjczNDQiIGhlaWdodD0iNDA5LjQ0MTQ5NzgwMjczNDQiIHdpZHRoPSI0MTMuNjk4MjQyMTg3NSI+JiN4YTs8ZyBzdHlsZT0iZmlsbC1ydWxlOm5vbnplcm87Y2xpcC1ydWxlOm5vbnplcm87c3Ryb2tlOiMwMDAwMDA7c3Ryb2tlLW1pdGVybGltaXQ6NDsiIGlkPSJvcmdpbmFsIj4mI3hhOwk8L2c+JiN4YTs8ZyBzdHlsZT0iZmlsbC1ydWxlOm5vbnplcm87Y2xpcC1ydWxlOm5vbnplcm87ZmlsbDpub25lO3N0cm9rZTojRkZGRkZGO3N0cm9rZS13aWR0aDoxMi40NjUxO3N0cm9rZS1saW5lY2FwOnJvdW5kO3N0cm9rZS1saW5lam9pbjpyb3VuZDtzdHJva2UtbWl0ZXJsaW1pdDo0OyIgaWQ9IkxheWVyX3gwMDIwXzMiPiYjeGE7PHBhdGggZD0iTTMyMy4yMDUsMzI0LjIyN2MyLjgzMy0yMy42MDEsMS45ODQtMjcuMDYyLDE5LjU2My0yMy4yMzlsNC40NjMsMC4zOTJjMTMuNTE3LDAuNjE1LDMxLjE5OS0yLjE3NCw0MS41ODctN2MyMi4zNjItMTAuMzc2LDM1LjYyMi0yNy43LDEzLjU3Mi0yMy4xNDhjLTUwLjI5NywxMC4zNzYtNTMuNzU1LTYuNjU1LTUzLjc1NS02LjY1NWM1My4xMTEtNzguODAzLDc1LjMxMy0xNzguODM2LDU2LjE0OS0yMDMuMzIyICAgIEMzNTIuNTE0LTUuNTM0LDI2Mi4wMzYsMjYuMDQ5LDI2MC41MjIsMjYuODY5bC0wLjQ4MiwwLjA4OWMtOS45MzgtMi4wNjItMjEuMDYtMy4yOTQtMzMuNTU0LTMuNDk2Yy0yMi43NjEtMC4zNzQtNDAuMDMyLDUuOTY3LTUzLjEzMywxNS45MDRjMCwwLTE2MS40MDgtNjYuNDk4LTE1My44OTksODMuNjI4YzEuNTk3LDMxLjkzNiw0NS43NzcsMjQxLjY1NSw5OC40NywxNzguMzEgICAgYzE5LjI1OS0yMy4xNjMsMzcuODcxLTQyLjc0OCwzNy44NzEtNDIuNzQ4YzkuMjQyLDYuMTQsMjAuMzA3LDkuMjcyLDMxLjkxMiw4LjE0N2wwLjg5Ny0wLjc2NWMtMC4yODEsMi44NzYtMC4xNTcsNS42ODksMC4zNTksOS4wMTljLTEzLjU3MiwxNS4xNjctOS41ODQsMTcuODMtMzYuNzIzLDIzLjQxNmMtMjcuNDU3LDUuNjU5LTExLjMyNiwxNS43MzQtMC43OTcsMTguMzY3YzEyLjc2OCwzLjE5Myw0Mi4zMDUsNy43MTYsNjIuMjY4LTIwLjIyNCAgICBsLTAuNzk1LDMuMTg4YzUuMzI1LDQuMjYsNC45NjUsMzAuNjE5LDUuNzIsNDkuNDUyYzAuNzU2LDE4LjgzNCwyLjAxNywzNi40MDksNS44NTYsNDYuNzcxYzMuODM5LDEwLjM2LDguMzY5LDM3LjA1LDQ0LjAzNiwyOS40MDZjMjkuODA5LTYuMzg4LDUyLjYtMTUuNTgyLDU0LjY3Ny0xMDEuMTA3IiBzdHlsZT0iZmlsbDojMDAwMDAwO3N0cm9rZTojMDAwMDAwO3N0cm9rZS13aWR0aDozNy4zOTUzO3N0cm9rZS1saW5lY2FwOmJ1dHQ7c3Ryb2tlLWxpbmVqb2luOm1pdGVyOyIvPiYjeGE7PHBhdGggZD0iTTQwMi4zOTUsMjcxLjIzYy01MC4zMDIsMTAuMzc2LTUzLjc2LTYuNjU1LTUzLjc2LTYuNjU1YzUzLjExMS03OC44MDgsNzUuMzEzLTE3OC44NDMsNTYuMTUzLTIwMy4zMjZjLTUyLjI3LTY2Ljc4NS0xNDIuNzUyLTM1LjItMTQ0LjI2Mi0zNC4zOGwtMC40ODYsMC4wODdjLTkuOTM4LTIuMDYzLTIxLjA2LTMuMjkyLTMzLjU2LTMuNDk2Yy0yMi43NjEtMC4zNzMtNDAuMDI2LDUuOTY3LTUzLjEyNywxNS45MDIgICAgYzAsMC0xNjEuNDExLTY2LjQ5NS0xNTMuOTA0LDgzLjYzYzEuNTk3LDMxLjkzOCw0NS43NzYsMjQxLjY1Nyw5OC40NzEsMTc4LjMxMmMxOS4yNi0yMy4xNjMsMzcuODY5LTQyLjc0OCwzNy44NjktNDIuNzQ4YzkuMjQzLDYuMTQsMjAuMzA4LDkuMjcyLDMxLjkwOCw4LjE0N2wwLjkwMS0wLjc2NWMtMC4yOCwyLjg3Ni0wLjE1Miw1LjY4OSwwLjM2MSw5LjAxOWMtMTMuNTc1LDE1LjE2Ny05LjU4NiwxNy44My0zNi43MjMsMjMuNDE2ICAgIGMtMjcuNDU5LDUuNjU5LTExLjMyOCwxNS43MzQtMC43OTYsMTguMzY3YzEyLjc2OCwzLjE5Myw0Mi4zMDcsNy43MTYsNjIuMjY2LTIwLjIyNGwtMC43OTYsMy4xODhjNS4zMTksNC4yNiw5LjA1NCwyNy43MTEsOC40MjgsNDguOTY5Yy0wLjYyNiwyMS4yNTktMS4wNDQsMzUuODU0LDMuMTQ3LDQ3LjI1NGM0LjE5MSwxMS40LDguMzY4LDM3LjA1LDQ0LjA0MiwyOS40MDZjMjkuODA5LTYuMzg4LDQ1LjI1Ni0yMi45NDIsNDcuNDA1LTUwLjU1NSAgICBjMS41MjUtMTkuNjMxLDQuOTc2LTE2LjcyOSw1LjE5NC0zNC4yOGwyLjc2OC04LjMwOWMzLjE5Mi0yNi42MTEsMC41MDctMzUuMTk2LDE4Ljg3Mi0zMS4yMDNsNC40NjMsMC4zOTJjMTMuNTE3LDAuNjE1LDMxLjIwOC0yLjE3NCw0MS41OTEtN2MyMi4zNTgtMTAuMzc2LDM1LjYxOC0yNy43LDEzLjU3My0yMy4xNDh6IiBzdHlsZT0iZmlsbDojMzM2NzkxO3N0cm9rZTpub25lOyIvPiYjeGE7PHBhdGggZD0iTTIxNS44NjYsMjg2LjQ4NGMtMS4zODUsNDkuNTE2LDAuMzQ4LDk5LjM3Nyw1LjE5MywxMTEuNDk1YzQuODQ4LDEyLjExOCwxNS4yMjMsMzUuNjg4LDUwLjksMjguMDQ1YzI5LjgwNi02LjM5LDQwLjY1MS0xOC43NTYsNDUuMzU3LTQ2LjA1MWMzLjQ2Ni0yMC4wODIsMTAuMTQ4LTc1Ljg1NCwxMS4wMDUtODcuMjgxIi8+JiN4YTs8cGF0aCBkPSJNMTczLjEwNCwzOC4yNTZjMCwwLTE2MS41MjEtNjYuMDE2LTE1NC4wMTIsODQuMTA5YzEuNTk3LDMxLjkzOCw0NS43NzksMjQxLjY2NCw5OC40NzMsMTc4LjMxNmMxOS4yNTYtMjMuMTY2LDM2LjY3MS00MS4zMzUsMzYuNjcxLTQxLjMzNSIvPiYjeGE7PHBhdGggZD0iTTI2MC4zNDksMjYuMjA3Yy01LjU5MSwxLjc1Myw4OS44NDgtMzQuODg5LDE0NC4wODcsMzQuNDE3YzE5LjE1OSwyNC40ODQtMy4wNDMsMTI0LjUxOS01Ni4xNTMsMjAzLjMyOSIvPiYjeGE7PHBhdGggZD0iTTM0OC4yODIsMjYzLjk1M2MwLDAsMy40NjEsMTcuMDM2LDUzLjc2NCw2LjY1M2MyMi4wNC00LjU1Miw4Ljc3NiwxMi43NzQtMTMuNTc3LDIzLjE1NWMtMTguMzQ1LDguNTE0LTU5LjQ3NCwxMC42OTYtNjAuMTQ2LTEuMDY5Yy0xLjcyOS0zMC4zNTUsMjEuNjQ3LTIxLjEzMywxOS45Ni0yOC43MzljLTEuNTI1LTYuODUtMTEuOTc5LTEzLjU3My0xOC44OTQtMzAuMzM4ICAgIGMtNi4wMzctMTQuNjMzLTgyLjc5Ni0xMjYuODQ5LDIxLjI4Ny0xMTAuMTgzYzMuODEzLTAuNzg5LTI3LjE0Ni05OS4wMDItMTI0LjU1My0xMDAuNTk5Yy05Ny4zODUtMS41OTctOTQuMTksMTE5Ljc2Mi05NC4xOSwxMTkuNzYyIiBzdHlsZT0ic3Ryb2tlLWxpbmVqb2luOmJldmVsOyIvPiYjeGE7PHBhdGggZD0iTTE4OC42MDQsMjc0LjMzNGMtMTMuNTc3LDE1LjE2Ni05LjU4NCwxNy44MjktMzYuNzIzLDIzLjQxN2MtMjcuNDU5LDUuNjYtMTEuMzI2LDE1LjczMy0wLjc5NywxOC4zNjVjMTIuNzY4LDMuMTk1LDQyLjMwNyw3LjcxOCw2Mi4yNjYtMjAuMjI5YzYuMDc4LTguNTA5LTAuMDM2LTIyLjA4Ni04LjM4NS0yNS41NDdjLTQuMDM0LTEuNjcxLTkuNDI4LTMuNzY1LTE2LjM2MSwzLjk5NHoiLz4mI3hhOzxwYXRoIGQ9Ik0xODcuNzE1LDI3NC4wNjljLTEuMzY4LTguOTE3LDIuOTMtMTkuNTI4LDcuNTM2LTMxLjk0MmM2LjkyMi0xOC42MjYsMjIuODkzLTM3LjI1NSwxMC4xMTctOTYuMzM5Yy05LjUyMy00NC4wMjktNzMuMzk2LTkuMTYzLTczLjQzNi0zLjE5M2MtMC4wMzksNS45NjgsMi44ODksMzAuMjYtMS4wNjcsNTguNTQ4Yy01LjE2MiwzNi45MTMsMjMuNDg4LDY4LjEzMiw1Ni40NzksNjQuOTM4Ii8+JiN4YTs8cGF0aCBkPSJNMTcyLjUxNywxNDEuN2MtMC4yODgsMi4wMzksMy43MzMsNy40OCw4Ljk3Niw4LjIwN2M1LjIzNCwwLjczLDkuNzE0LTMuNTIyLDkuOTk4LTUuNTU5YzAuMjg0LTIuMDM5LTMuNzMyLTQuMjg1LTguOTc3LTUuMDE1Yy01LjIzNy0wLjczMS05LjcxOSwwLjMzMy05Ljk5NiwyLjM2N3oiIHN0eWxlPSJmaWxsOiNGRkZGRkY7c3Ryb2tlLXdpZHRoOjQuMTU1O3N0cm9rZS1saW5lY2FwOmJ1dHQ7c3Ryb2tlLWxpbmVqb2luOm1pdGVyOyIvPiYjeGE7PHBhdGggZD0iTTMzMS45NDEsMTM3LjU0M2MwLjI4NCwyLjAzOS0zLjczMiw3LjQ4LTguOTc2LDguMjA3Yy01LjIzOCwwLjczLTkuNzE4LTMuNTIyLTEwLjAwNS01LjU1OWMtMC4yNzctMi4wMzksMy43NC00LjI4NSw4Ljk3OS01LjAxNWM1LjIzOS0wLjczLDkuNzE4LDAuMzMzLDEwLjAwMiwyLjM2OHoiIHN0eWxlPSJmaWxsOiNGRkZGRkY7c3Ryb2tlLXdpZHRoOjIuMDc3NTtzdHJva2UtbGluZWNhcDpidXR0O3N0cm9rZS1saW5lam9pbjptaXRlcjsiLz4mI3hhOzxwYXRoIGQ9Ik0zNTAuNjc2LDEyMy40MzJjMC44NjMsMTUuOTk0LTMuNDQ1LDI2Ljg4OC0zLjk4OCw0My45MTRjLTAuODA0LDI0Ljc0OCwxMS43OTksNTMuMDc0LTcuMTkxLDgxLjQzNSIvPiYjeGE7PHBhdGggZD0iTTAsNjAuMjMyIiBzdHlsZT0ic3Ryb2tlLXdpZHRoOjM7Ii8+JiN4YTs8L2c+JiN4YTs8L3N2Zz4=;" vertex="1" parent="c-d4OfnDCnfcvoNjXBJn-121">
          <mxGeometry x="22.25" width="20.25" height="20" as="geometry" />
        </mxCell>
        <mxCell id="c-d4OfnDCnfcvoNjXBJn-124" value="&lt;font style=&quot;font-size: 6px;&quot;&gt;Clone EAR&lt;/font&gt;" style="text;html=1;align=center;verticalAlign=middle;whiteSpace=wrap;rounded=0;" vertex="1" parent="c-d4OfnDCnfcvoNjXBJn-121">
          <mxGeometry x="2.5" y="30" width="40" height="20" as="geometry" />
        </mxCell>
        <mxCell id="c-d4OfnDCnfcvoNjXBJn-128" value="" style="group" vertex="1" connectable="0" parent="1">
          <mxGeometry x="270" y="475" width="42.5" height="55" as="geometry" />
        </mxCell>
        <mxCell id="c-d4OfnDCnfcvoNjXBJn-129" value="" style="verticalLabelPosition=bottom;sketch=0;aspect=fixed;html=1;verticalAlign=top;strokeColor=#b85450;align=center;outlineConnect=0;shape=mxgraph.citrix.database;fillColor=#f8cecc;" vertex="1" parent="c-d4OfnDCnfcvoNjXBJn-128">
          <mxGeometry y="5" width="42.5" height="50" as="geometry" />
        </mxCell>
        <mxCell id="c-d4OfnDCnfcvoNjXBJn-130" value="" style="shape=image;verticalLabelPosition=bottom;labelBackgroundColor=default;verticalAlign=top;aspect=fixed;imageAspect=0;editableCssRules=.*;image=data:image/svg+xml,PHN2ZyB4bWxucz0iaHR0cDovL3d3dy53My5vcmcvMjAwMC9zdmciIHhtbDpzcGFjZT0icHJlc2VydmUiIHZpZXdCb3g9IjAgMTguMDc2MzI4Mjc3NTg3ODkgNDEzLjY5ODI0MjE4NzUgNDA5LjQ0MTQ5NzgwMjczNDQiIGhlaWdodD0iNDA5LjQ0MTQ5NzgwMjczNDQiIHdpZHRoPSI0MTMuNjk4MjQyMTg3NSI+JiN4YTs8ZyBzdHlsZT0iZmlsbC1ydWxlOm5vbnplcm87Y2xpcC1ydWxlOm5vbnplcm87c3Ryb2tlOiMwMDAwMDA7c3Ryb2tlLW1pdGVybGltaXQ6NDsiIGlkPSJvcmdpbmFsIj4mI3hhOwk8L2c+JiN4YTs8ZyBzdHlsZT0iZmlsbC1ydWxlOm5vbnplcm87Y2xpcC1ydWxlOm5vbnplcm87ZmlsbDpub25lO3N0cm9rZTojRkZGRkZGO3N0cm9rZS13aWR0aDoxMi40NjUxO3N0cm9rZS1saW5lY2FwOnJvdW5kO3N0cm9rZS1saW5lam9pbjpyb3VuZDtzdHJva2UtbWl0ZXJsaW1pdDo0OyIgaWQ9IkxheWVyX3gwMDIwXzMiPiYjeGE7PHBhdGggZD0iTTMyMy4yMDUsMzI0LjIyN2MyLjgzMy0yMy42MDEsMS45ODQtMjcuMDYyLDE5LjU2My0yMy4yMzlsNC40NjMsMC4zOTJjMTMuNTE3LDAuNjE1LDMxLjE5OS0yLjE3NCw0MS41ODctN2MyMi4zNjItMTAuMzc2LDM1LjYyMi0yNy43LDEzLjU3Mi0yMy4xNDhjLTUwLjI5NywxMC4zNzYtNTMuNzU1LTYuNjU1LTUzLjc1NS02LjY1NWM1My4xMTEtNzguODAzLDc1LjMxMy0xNzguODM2LDU2LjE0OS0yMDMuMzIyICAgIEMzNTIuNTE0LTUuNTM0LDI2Mi4wMzYsMjYuMDQ5LDI2MC41MjIsMjYuODY5bC0wLjQ4MiwwLjA4OWMtOS45MzgtMi4wNjItMjEuMDYtMy4yOTQtMzMuNTU0LTMuNDk2Yy0yMi43NjEtMC4zNzQtNDAuMDMyLDUuOTY3LTUzLjEzMywxNS45MDRjMCwwLTE2MS40MDgtNjYuNDk4LTE1My44OTksODMuNjI4YzEuNTk3LDMxLjkzNiw0NS43NzcsMjQxLjY1NSw5OC40NywxNzguMzEgICAgYzE5LjI1OS0yMy4xNjMsMzcuODcxLTQyLjc0OCwzNy44NzEtNDIuNzQ4YzkuMjQyLDYuMTQsMjAuMzA3LDkuMjcyLDMxLjkxMiw4LjE0N2wwLjg5Ny0wLjc2NWMtMC4yODEsMi44NzYtMC4xNTcsNS42ODksMC4zNTksOS4wMTljLTEzLjU3MiwxNS4xNjctOS41ODQsMTcuODMtMzYuNzIzLDIzLjQxNmMtMjcuNDU3LDUuNjU5LTExLjMyNiwxNS43MzQtMC43OTcsMTguMzY3YzEyLjc2OCwzLjE5Myw0Mi4zMDUsNy43MTYsNjIuMjY4LTIwLjIyNCAgICBsLTAuNzk1LDMuMTg4YzUuMzI1LDQuMjYsNC45NjUsMzAuNjE5LDUuNzIsNDkuNDUyYzAuNzU2LDE4LjgzNCwyLjAxNywzNi40MDksNS44NTYsNDYuNzcxYzMuODM5LDEwLjM2LDguMzY5LDM3LjA1LDQ0LjAzNiwyOS40MDZjMjkuODA5LTYuMzg4LDUyLjYtMTUuNTgyLDU0LjY3Ny0xMDEuMTA3IiBzdHlsZT0iZmlsbDojMDAwMDAwO3N0cm9rZTojMDAwMDAwO3N0cm9rZS13aWR0aDozNy4zOTUzO3N0cm9rZS1saW5lY2FwOmJ1dHQ7c3Ryb2tlLWxpbmVqb2luOm1pdGVyOyIvPiYjeGE7PHBhdGggZD0iTTQwMi4zOTUsMjcxLjIzYy01MC4zMDIsMTAuMzc2LTUzLjc2LTYuNjU1LTUzLjc2LTYuNjU1YzUzLjExMS03OC44MDgsNzUuMzEzLTE3OC44NDMsNTYuMTUzLTIwMy4zMjZjLTUyLjI3LTY2Ljc4NS0xNDIuNzUyLTM1LjItMTQ0LjI2Mi0zNC4zOGwtMC40ODYsMC4wODdjLTkuOTM4LTIuMDYzLTIxLjA2LTMuMjkyLTMzLjU2LTMuNDk2Yy0yMi43NjEtMC4zNzMtNDAuMDI2LDUuOTY3LTUzLjEyNywxNS45MDIgICAgYzAsMC0xNjEuNDExLTY2LjQ5NS0xNTMuOTA0LDgzLjYzYzEuNTk3LDMxLjkzOCw0NS43NzYsMjQxLjY1Nyw5OC40NzEsMTc4LjMxMmMxOS4yNi0yMy4xNjMsMzcuODY5LTQyLjc0OCwzNy44NjktNDIuNzQ4YzkuMjQzLDYuMTQsMjAuMzA4LDkuMjcyLDMxLjkwOCw4LjE0N2wwLjkwMS0wLjc2NWMtMC4yOCwyLjg3Ni0wLjE1Miw1LjY4OSwwLjM2MSw5LjAxOWMtMTMuNTc1LDE1LjE2Ny05LjU4NiwxNy44My0zNi43MjMsMjMuNDE2ICAgIGMtMjcuNDU5LDUuNjU5LTExLjMyOCwxNS43MzQtMC43OTYsMTguMzY3YzEyLjc2OCwzLjE5Myw0Mi4zMDcsNy43MTYsNjIuMjY2LTIwLjIyNGwtMC43OTYsMy4xODhjNS4zMTksNC4yNiw5LjA1NCwyNy43MTEsOC40MjgsNDguOTY5Yy0wLjYyNiwyMS4yNTktMS4wNDQsMzUuODU0LDMuMTQ3LDQ3LjI1NGM0LjE5MSwxMS40LDguMzY4LDM3LjA1LDQ0LjA0MiwyOS40MDZjMjkuODA5LTYuMzg4LDQ1LjI1Ni0yMi45NDIsNDcuNDA1LTUwLjU1NSAgICBjMS41MjUtMTkuNjMxLDQuOTc2LTE2LjcyOSw1LjE5NC0zNC4yOGwyLjc2OC04LjMwOWMzLjE5Mi0yNi42MTEsMC41MDctMzUuMTk2LDE4Ljg3Mi0zMS4yMDNsNC40NjMsMC4zOTJjMTMuNTE3LDAuNjE1LDMxLjIwOC0yLjE3NCw0MS41OTEtN2MyMi4zNTgtMTAuMzc2LDM1LjYxOC0yNy43LDEzLjU3My0yMy4xNDh6IiBzdHlsZT0iZmlsbDojMzM2NzkxO3N0cm9rZTpub25lOyIvPiYjeGE7PHBhdGggZD0iTTIxNS44NjYsMjg2LjQ4NGMtMS4zODUsNDkuNTE2LDAuMzQ4LDk5LjM3Nyw1LjE5MywxMTEuNDk1YzQuODQ4LDEyLjExOCwxNS4yMjMsMzUuNjg4LDUwLjksMjguMDQ1YzI5LjgwNi02LjM5LDQwLjY1MS0xOC43NTYsNDUuMzU3LTQ2LjA1MWMzLjQ2Ni0yMC4wODIsMTAuMTQ4LTc1Ljg1NCwxMS4wMDUtODcuMjgxIi8+JiN4YTs8cGF0aCBkPSJNMTczLjEwNCwzOC4yNTZjMCwwLTE2MS41MjEtNjYuMDE2LTE1NC4wMTIsODQuMTA5YzEuNTk3LDMxLjkzOCw0NS43NzksMjQxLjY2NCw5OC40NzMsMTc4LjMxNmMxOS4yNTYtMjMuMTY2LDM2LjY3MS00MS4zMzUsMzYuNjcxLTQxLjMzNSIvPiYjeGE7PHBhdGggZD0iTTI2MC4zNDksMjYuMjA3Yy01LjU5MSwxLjc1Myw4OS44NDgtMzQuODg5LDE0NC4wODcsMzQuNDE3YzE5LjE1OSwyNC40ODQtMy4wNDMsMTI0LjUxOS01Ni4xNTMsMjAzLjMyOSIvPiYjeGE7PHBhdGggZD0iTTM0OC4yODIsMjYzLjk1M2MwLDAsMy40NjEsMTcuMDM2LDUzLjc2NCw2LjY1M2MyMi4wNC00LjU1Miw4Ljc3NiwxMi43NzQtMTMuNTc3LDIzLjE1NWMtMTguMzQ1LDguNTE0LTU5LjQ3NCwxMC42OTYtNjAuMTQ2LTEuMDY5Yy0xLjcyOS0zMC4zNTUsMjEuNjQ3LTIxLjEzMywxOS45Ni0yOC43MzljLTEuNTI1LTYuODUtMTEuOTc5LTEzLjU3My0xOC44OTQtMzAuMzM4ICAgIGMtNi4wMzctMTQuNjMzLTgyLjc5Ni0xMjYuODQ5LDIxLjI4Ny0xMTAuMTgzYzMuODEzLTAuNzg5LTI3LjE0Ni05OS4wMDItMTI0LjU1My0xMDAuNTk5Yy05Ny4zODUtMS41OTctOTQuMTksMTE5Ljc2Mi05NC4xOSwxMTkuNzYyIiBzdHlsZT0ic3Ryb2tlLWxpbmVqb2luOmJldmVsOyIvPiYjeGE7PHBhdGggZD0iTTE4OC42MDQsMjc0LjMzNGMtMTMuNTc3LDE1LjE2Ni05LjU4NCwxNy44MjktMzYuNzIzLDIzLjQxN2MtMjcuNDU5LDUuNjYtMTEuMzI2LDE1LjczMy0wLjc5NywxOC4zNjVjMTIuNzY4LDMuMTk1LDQyLjMwNyw3LjcxOCw2Mi4yNjYtMjAuMjI5YzYuMDc4LTguNTA5LTAuMDM2LTIyLjA4Ni04LjM4NS0yNS41NDdjLTQuMDM0LTEuNjcxLTkuNDI4LTMuNzY1LTE2LjM2MSwzLjk5NHoiLz4mI3hhOzxwYXRoIGQ9Ik0xODcuNzE1LDI3NC4wNjljLTEuMzY4LTguOTE3LDIuOTMtMTkuNTI4LDcuNTM2LTMxLjk0MmM2LjkyMi0xOC42MjYsMjIuODkzLTM3LjI1NSwxMC4xMTctOTYuMzM5Yy05LjUyMy00NC4wMjktNzMuMzk2LTkuMTYzLTczLjQzNi0zLjE5M2MtMC4wMzksNS45NjgsMi44ODksMzAuMjYtMS4wNjcsNTguNTQ4Yy01LjE2MiwzNi45MTMsMjMuNDg4LDY4LjEzMiw1Ni40NzksNjQuOTM4Ii8+JiN4YTs8cGF0aCBkPSJNMTcyLjUxNywxNDEuN2MtMC4yODgsMi4wMzksMy43MzMsNy40OCw4Ljk3Niw4LjIwN2M1LjIzNCwwLjczLDkuNzE0LTMuNTIyLDkuOTk4LTUuNTU5YzAuMjg0LTIuMDM5LTMuNzMyLTQuMjg1LTguOTc3LTUuMDE1Yy01LjIzNy0wLjczMS05LjcxOSwwLjMzMy05Ljk5NiwyLjM2N3oiIHN0eWxlPSJmaWxsOiNGRkZGRkY7c3Ryb2tlLXdpZHRoOjQuMTU1O3N0cm9rZS1saW5lY2FwOmJ1dHQ7c3Ryb2tlLWxpbmVqb2luOm1pdGVyOyIvPiYjeGE7PHBhdGggZD0iTTMzMS45NDEsMTM3LjU0M2MwLjI4NCwyLjAzOS0zLjczMiw3LjQ4LTguOTc2LDguMjA3Yy01LjIzOCwwLjczLTkuNzE4LTMuNTIyLTEwLjAwNS01LjU1OWMtMC4yNzctMi4wMzksMy43NC00LjI4NSw4Ljk3OS01LjAxNWM1LjIzOS0wLjczLDkuNzE4LDAuMzMzLDEwLjAwMiwyLjM2OHoiIHN0eWxlPSJmaWxsOiNGRkZGRkY7c3Ryb2tlLXdpZHRoOjIuMDc3NTtzdHJva2UtbGluZWNhcDpidXR0O3N0cm9rZS1saW5lam9pbjptaXRlcjsiLz4mI3hhOzxwYXRoIGQ9Ik0zNTAuNjc2LDEyMy40MzJjMC44NjMsMTUuOTk0LTMuNDQ1LDI2Ljg4OC0zLjk4OCw0My45MTRjLTAuODA0LDI0Ljc0OCwxMS43OTksNTMuMDc0LTcuMTkxLDgxLjQzNSIvPiYjeGE7PHBhdGggZD0iTTAsNjAuMjMyIiBzdHlsZT0ic3Ryb2tlLXdpZHRoOjM7Ii8+JiN4YTs8L2c+JiN4YTs8L3N2Zz4=;" vertex="1" parent="c-d4OfnDCnfcvoNjXBJn-128">
          <mxGeometry x="22.25" width="20.25" height="20" as="geometry" />
        </mxCell>
        <mxCell id="c-d4OfnDCnfcvoNjXBJn-131" value="&lt;font style=&quot;font-size: 8px;&quot;&gt;PopLeg&lt;/font&gt;" style="text;html=1;align=center;verticalAlign=middle;whiteSpace=wrap;rounded=0;" vertex="1" parent="c-d4OfnDCnfcvoNjXBJn-128">
          <mxGeometry x="2.5" y="30" width="40" height="20" as="geometry" />
        </mxCell>
        <mxCell id="c-d4OfnDCnfcvoNjXBJn-133" value="" style="group" vertex="1" connectable="0" parent="1">
          <mxGeometry x="270" y="400" width="42.5" height="55" as="geometry" />
        </mxCell>
        <mxCell id="c-d4OfnDCnfcvoNjXBJn-134" value="" style="verticalLabelPosition=bottom;sketch=0;aspect=fixed;html=1;verticalAlign=top;strokeColor=#b85450;align=center;outlineConnect=0;shape=mxgraph.citrix.database;fillColor=#f8cecc;" vertex="1" parent="c-d4OfnDCnfcvoNjXBJn-133">
          <mxGeometry y="5" width="42.5" height="50" as="geometry" />
        </mxCell>
        <mxCell id="c-d4OfnDCnfcvoNjXBJn-135" value="" style="shape=image;verticalLabelPosition=bottom;labelBackgroundColor=default;verticalAlign=top;aspect=fixed;imageAspect=0;editableCssRules=.*;image=data:image/svg+xml,PHN2ZyB4bWxucz0iaHR0cDovL3d3dy53My5vcmcvMjAwMC9zdmciIHhtbDpzcGFjZT0icHJlc2VydmUiIHZpZXdCb3g9IjAgMTguMDc2MzI4Mjc3NTg3ODkgNDEzLjY5ODI0MjE4NzUgNDA5LjQ0MTQ5NzgwMjczNDQiIGhlaWdodD0iNDA5LjQ0MTQ5NzgwMjczNDQiIHdpZHRoPSI0MTMuNjk4MjQyMTg3NSI+JiN4YTs8ZyBzdHlsZT0iZmlsbC1ydWxlOm5vbnplcm87Y2xpcC1ydWxlOm5vbnplcm87c3Ryb2tlOiMwMDAwMDA7c3Ryb2tlLW1pdGVybGltaXQ6NDsiIGlkPSJvcmdpbmFsIj4mI3hhOwk8L2c+JiN4YTs8ZyBzdHlsZT0iZmlsbC1ydWxlOm5vbnplcm87Y2xpcC1ydWxlOm5vbnplcm87ZmlsbDpub25lO3N0cm9rZTojRkZGRkZGO3N0cm9rZS13aWR0aDoxMi40NjUxO3N0cm9rZS1saW5lY2FwOnJvdW5kO3N0cm9rZS1saW5lam9pbjpyb3VuZDtzdHJva2UtbWl0ZXJsaW1pdDo0OyIgaWQ9IkxheWVyX3gwMDIwXzMiPiYjeGE7PHBhdGggZD0iTTMyMy4yMDUsMzI0LjIyN2MyLjgzMy0yMy42MDEsMS45ODQtMjcuMDYyLDE5LjU2My0yMy4yMzlsNC40NjMsMC4zOTJjMTMuNTE3LDAuNjE1LDMxLjE5OS0yLjE3NCw0MS41ODctN2MyMi4zNjItMTAuMzc2LDM1LjYyMi0yNy43LDEzLjU3Mi0yMy4xNDhjLTUwLjI5NywxMC4zNzYtNTMuNzU1LTYuNjU1LTUzLjc1NS02LjY1NWM1My4xMTEtNzguODAzLDc1LjMxMy0xNzguODM2LDU2LjE0OS0yMDMuMzIyICAgIEMzNTIuNTE0LTUuNTM0LDI2Mi4wMzYsMjYuMDQ5LDI2MC41MjIsMjYuODY5bC0wLjQ4MiwwLjA4OWMtOS45MzgtMi4wNjItMjEuMDYtMy4yOTQtMzMuNTU0LTMuNDk2Yy0yMi43NjEtMC4zNzQtNDAuMDMyLDUuOTY3LTUzLjEzMywxNS45MDRjMCwwLTE2MS40MDgtNjYuNDk4LTE1My44OTksODMuNjI4YzEuNTk3LDMxLjkzNiw0NS43NzcsMjQxLjY1NSw5OC40NywxNzguMzEgICAgYzE5LjI1OS0yMy4xNjMsMzcuODcxLTQyLjc0OCwzNy44NzEtNDIuNzQ4YzkuMjQyLDYuMTQsMjAuMzA3LDkuMjcyLDMxLjkxMiw4LjE0N2wwLjg5Ny0wLjc2NWMtMC4yODEsMi44NzYtMC4xNTcsNS42ODksMC4zNTksOS4wMTljLTEzLjU3MiwxNS4xNjctOS41ODQsMTcuODMtMzYuNzIzLDIzLjQxNmMtMjcuNDU3LDUuNjU5LTExLjMyNiwxNS43MzQtMC43OTcsMTguMzY3YzEyLjc2OCwzLjE5Myw0Mi4zMDUsNy43MTYsNjIuMjY4LTIwLjIyNCAgICBsLTAuNzk1LDMuMTg4YzUuMzI1LDQuMjYsNC45NjUsMzAuNjE5LDUuNzIsNDkuNDUyYzAuNzU2LDE4LjgzNCwyLjAxNywzNi40MDksNS44NTYsNDYuNzcxYzMuODM5LDEwLjM2LDguMzY5LDM3LjA1LDQ0LjAzNiwyOS40MDZjMjkuODA5LTYuMzg4LDUyLjYtMTUuNTgyLDU0LjY3Ny0xMDEuMTA3IiBzdHlsZT0iZmlsbDojMDAwMDAwO3N0cm9rZTojMDAwMDAwO3N0cm9rZS13aWR0aDozNy4zOTUzO3N0cm9rZS1saW5lY2FwOmJ1dHQ7c3Ryb2tlLWxpbmVqb2luOm1pdGVyOyIvPiYjeGE7PHBhdGggZD0iTTQwMi4zOTUsMjcxLjIzYy01MC4zMDIsMTAuMzc2LTUzLjc2LTYuNjU1LTUzLjc2LTYuNjU1YzUzLjExMS03OC44MDgsNzUuMzEzLTE3OC44NDMsNTYuMTUzLTIwMy4zMjZjLTUyLjI3LTY2Ljc4NS0xNDIuNzUyLTM1LjItMTQ0LjI2Mi0zNC4zOGwtMC40ODYsMC4wODdjLTkuOTM4LTIuMDYzLTIxLjA2LTMuMjkyLTMzLjU2LTMuNDk2Yy0yMi43NjEtMC4zNzMtNDAuMDI2LDUuOTY3LTUzLjEyNywxNS45MDIgICAgYzAsMC0xNjEuNDExLTY2LjQ5NS0xNTMuOTA0LDgzLjYzYzEuNTk3LDMxLjkzOCw0NS43NzYsMjQxLjY1Nyw5OC40NzEsMTc4LjMxMmMxOS4yNi0yMy4xNjMsMzcuODY5LTQyLjc0OCwzNy44NjktNDIuNzQ4YzkuMjQzLDYuMTQsMjAuMzA4LDkuMjcyLDMxLjkwOCw4LjE0N2wwLjkwMS0wLjc2NWMtMC4yOCwyLjg3Ni0wLjE1Miw1LjY4OSwwLjM2MSw5LjAxOWMtMTMuNTc1LDE1LjE2Ny05LjU4NiwxNy44My0zNi43MjMsMjMuNDE2ICAgIGMtMjcuNDU5LDUuNjU5LTExLjMyOCwxNS43MzQtMC43OTYsMTguMzY3YzEyLjc2OCwzLjE5Myw0Mi4zMDcsNy43MTYsNjIuMjY2LTIwLjIyNGwtMC43OTYsMy4xODhjNS4zMTksNC4yNiw5LjA1NCwyNy43MTEsOC40MjgsNDguOTY5Yy0wLjYyNiwyMS4yNTktMS4wNDQsMzUuODU0LDMuMTQ3LDQ3LjI1NGM0LjE5MSwxMS40LDguMzY4LDM3LjA1LDQ0LjA0MiwyOS40MDZjMjkuODA5LTYuMzg4LDQ1LjI1Ni0yMi45NDIsNDcuNDA1LTUwLjU1NSAgICBjMS41MjUtMTkuNjMxLDQuOTc2LTE2LjcyOSw1LjE5NC0zNC4yOGwyLjc2OC04LjMwOWMzLjE5Mi0yNi42MTEsMC41MDctMzUuMTk2LDE4Ljg3Mi0zMS4yMDNsNC40NjMsMC4zOTJjMTMuNTE3LDAuNjE1LDMxLjIwOC0yLjE3NCw0MS41OTEtN2MyMi4zNTgtMTAuMzc2LDM1LjYxOC0yNy43LDEzLjU3My0yMy4xNDh6IiBzdHlsZT0iZmlsbDojMzM2NzkxO3N0cm9rZTpub25lOyIvPiYjeGE7PHBhdGggZD0iTTIxNS44NjYsMjg2LjQ4NGMtMS4zODUsNDkuNTE2LDAuMzQ4LDk5LjM3Nyw1LjE5MywxMTEuNDk1YzQuODQ4LDEyLjExOCwxNS4yMjMsMzUuNjg4LDUwLjksMjguMDQ1YzI5LjgwNi02LjM5LDQwLjY1MS0xOC43NTYsNDUuMzU3LTQ2LjA1MWMzLjQ2Ni0yMC4wODIsMTAuMTQ4LTc1Ljg1NCwxMS4wMDUtODcuMjgxIi8+JiN4YTs8cGF0aCBkPSJNMTczLjEwNCwzOC4yNTZjMCwwLTE2MS41MjEtNjYuMDE2LTE1NC4wMTIsODQuMTA5YzEuNTk3LDMxLjkzOCw0NS43NzksMjQxLjY2NCw5OC40NzMsMTc4LjMxNmMxOS4yNTYtMjMuMTY2LDM2LjY3MS00MS4zMzUsMzYuNjcxLTQxLjMzNSIvPiYjeGE7PHBhdGggZD0iTTI2MC4zNDksMjYuMjA3Yy01LjU5MSwxLjc1Myw4OS44NDgtMzQuODg5LDE0NC4wODcsMzQuNDE3YzE5LjE1OSwyNC40ODQtMy4wNDMsMTI0LjUxOS01Ni4xNTMsMjAzLjMyOSIvPiYjeGE7PHBhdGggZD0iTTM0OC4yODIsMjYzLjk1M2MwLDAsMy40NjEsMTcuMDM2LDUzLjc2NCw2LjY1M2MyMi4wNC00LjU1Miw4Ljc3NiwxMi43NzQtMTMuNTc3LDIzLjE1NWMtMTguMzQ1LDguNTE0LTU5LjQ3NCwxMC42OTYtNjAuMTQ2LTEuMDY5Yy0xLjcyOS0zMC4zNTUsMjEuNjQ3LTIxLjEzMywxOS45Ni0yOC43MzljLTEuNTI1LTYuODUtMTEuOTc5LTEzLjU3My0xOC44OTQtMzAuMzM4ICAgIGMtNi4wMzctMTQuNjMzLTgyLjc5Ni0xMjYuODQ5LDIxLjI4Ny0xMTAuMTgzYzMuODEzLTAuNzg5LTI3LjE0Ni05OS4wMDItMTI0LjU1My0xMDAuNTk5Yy05Ny4zODUtMS41OTctOTQuMTksMTE5Ljc2Mi05NC4xOSwxMTkuNzYyIiBzdHlsZT0ic3Ryb2tlLWxpbmVqb2luOmJldmVsOyIvPiYjeGE7PHBhdGggZD0iTTE4OC42MDQsMjc0LjMzNGMtMTMuNTc3LDE1LjE2Ni05LjU4NCwxNy44MjktMzYuNzIzLDIzLjQxN2MtMjcuNDU5LDUuNjYtMTEuMzI2LDE1LjczMy0wLjc5NywxOC4zNjVjMTIuNzY4LDMuMTk1LDQyLjMwNyw3LjcxOCw2Mi4yNjYtMjAuMjI5YzYuMDc4LTguNTA5LTAuMDM2LTIyLjA4Ni04LjM4NS0yNS41NDdjLTQuMDM0LTEuNjcxLTkuNDI4LTMuNzY1LTE2LjM2MSwzLjk5NHoiLz4mI3hhOzxwYXRoIGQ9Ik0xODcuNzE1LDI3NC4wNjljLTEuMzY4LTguOTE3LDIuOTMtMTkuNTI4LDcuNTM2LTMxLjk0MmM2LjkyMi0xOC42MjYsMjIuODkzLTM3LjI1NSwxMC4xMTctOTYuMzM5Yy05LjUyMy00NC4wMjktNzMuMzk2LTkuMTYzLTczLjQzNi0zLjE5M2MtMC4wMzksNS45NjgsMi44ODksMzAuMjYtMS4wNjcsNTguNTQ4Yy01LjE2MiwzNi45MTMsMjMuNDg4LDY4LjEzMiw1Ni40NzksNjQuOTM4Ii8+JiN4YTs8cGF0aCBkPSJNMTcyLjUxNywxNDEuN2MtMC4yODgsMi4wMzksMy43MzMsNy40OCw4Ljk3Niw4LjIwN2M1LjIzNCwwLjczLDkuNzE0LTMuNTIyLDkuOTk4LTUuNTU5YzAuMjg0LTIuMDM5LTMuNzMyLTQuMjg1LTguOTc3LTUuMDE1Yy01LjIzNy0wLjczMS05LjcxOSwwLjMzMy05Ljk5NiwyLjM2N3oiIHN0eWxlPSJmaWxsOiNGRkZGRkY7c3Ryb2tlLXdpZHRoOjQuMTU1O3N0cm9rZS1saW5lY2FwOmJ1dHQ7c3Ryb2tlLWxpbmVqb2luOm1pdGVyOyIvPiYjeGE7PHBhdGggZD0iTTMzMS45NDEsMTM3LjU0M2MwLjI4NCwyLjAzOS0zLjczMiw3LjQ4LTguOTc2LDguMjA3Yy01LjIzOCwwLjczLTkuNzE4LTMuNTIyLTEwLjAwNS01LjU1OWMtMC4yNzctMi4wMzksMy43NC00LjI4NSw4Ljk3OS01LjAxNWM1LjIzOS0wLjczLDkuNzE4LDAuMzMzLDEwLjAwMiwyLjM2OHoiIHN0eWxlPSJmaWxsOiNGRkZGRkY7c3Ryb2tlLXdpZHRoOjIuMDc3NTtzdHJva2UtbGluZWNhcDpidXR0O3N0cm9rZS1saW5lam9pbjptaXRlcjsiLz4mI3hhOzxwYXRoIGQ9Ik0zNTAuNjc2LDEyMy40MzJjMC44NjMsMTUuOTk0LTMuNDQ1LDI2Ljg4OC0zLjk4OCw0My45MTRjLTAuODA0LDI0Ljc0OCwxMS43OTksNTMuMDc0LTcuMTkxLDgxLjQzNSIvPiYjeGE7PHBhdGggZD0iTTAsNjAuMjMyIiBzdHlsZT0ic3Ryb2tlLXdpZHRoOjM7Ii8+JiN4YTs8L2c+JiN4YTs8L3N2Zz4=;" vertex="1" parent="c-d4OfnDCnfcvoNjXBJn-133">
          <mxGeometry x="22.25" width="20.25" height="20" as="geometry" />
        </mxCell>
        <mxCell id="c-d4OfnDCnfcvoNjXBJn-136" value="&lt;font style=&quot;line-height: 70%; font-size: 5px;&quot;&gt;Archive PopLeg&lt;/font&gt;" style="text;html=1;align=center;verticalAlign=middle;whiteSpace=wrap;rounded=0;" vertex="1" parent="c-d4OfnDCnfcvoNjXBJn-133">
          <mxGeometry x="2.5" y="30" width="40" height="20" as="geometry" />
        </mxCell>
        <mxCell id="c-d4OfnDCnfcvoNjXBJn-137" value="" style="endArrow=none;dashed=1;html=1;dashPattern=1 3;strokeWidth=2;rounded=0;fillColor=#a20025;strokeColor=#6F0000;exitX=0.5;exitY=0;exitDx=0;exitDy=0;entryX=0.471;entryY=0.9;entryDx=0;entryDy=0;entryPerimeter=0;" edge="1" parent="1" source="c-d4OfnDCnfcvoNjXBJn-109" target="c-d4OfnDCnfcvoNjXBJn-134">
          <mxGeometry width="50" height="50" relative="1" as="geometry">
            <mxPoint x="140" y="453" as="sourcePoint" />
            <mxPoint x="187.37750683682793" y="390" as="targetPoint" />
          </mxGeometry>
        </mxCell>
      </root>
    </mxGraphModel>
  </diagram>
</mxfile>
